<svg width="598" height="241" viewBox="0 0 598 241" fill="none" xmlns="http://www.w3.org/2000/svg">
<path d="M37.9094 75.192H28.9219L49.1165 19.1047H58.8986L79.0931 75.192H70.1057L54.2404 29.2925H53.802L37.9094 75.192ZM39.4166 53.2282H68.5712V60.3485H39.4166V53.2282ZM133.262 19.1047V75.192H125.481L96.9561 34.0577H96.4355V75.192H87.9686V19.1047H95.8053L124.357 60.2938H124.878V19.1047H133.262ZM143.618 26.3895V19.1047H187.048V26.3895H169.539V75.192H161.1V26.3895H143.618ZM197.416 75.192V19.1047H232.6V26.3895H205.885V43.4785H230.764V50.7359H205.885V67.9072H232.928V75.192H197.416ZM291.291 37.344H282.741C282.413 35.5182 281.8 33.9116 280.905 32.524C280.01 31.1364 278.914 29.9588 277.618 28.9911C276.32 28.0235 274.869 27.2931 273.26 26.8003C271.671 26.3074 269.981 26.0608 268.191 26.0608C264.958 26.0608 262.062 26.8732 259.506 28.4981C256.966 30.1233 254.958 32.5057 253.478 35.646C252.016 38.7863 251.285 42.6205 251.285 47.1483C251.285 51.7128 252.016 55.5651 253.478 58.7055C254.958 61.8458 256.975 64.2192 259.533 65.8258C262.091 67.4326 264.967 68.2358 268.164 68.2358C269.937 68.2358 271.617 67.9984 273.206 67.5238C274.813 67.0308 276.266 66.3097 277.562 65.3603C278.86 64.4108 279.956 63.2515 280.851 61.8822C281.763 60.4947 282.394 58.9062 282.741 57.117L291.291 57.1444C290.834 59.9012 289.948 62.439 288.633 64.7578C287.336 67.0581 285.664 69.0482 283.619 70.7281C281.59 72.3894 279.271 73.6766 276.659 74.5895C274.045 75.5024 271.196 75.9588 268.11 75.9588C263.25 75.9588 258.922 74.8085 255.122 72.5082C251.321 70.1894 248.326 66.8757 246.134 62.5669C243.96 58.2582 242.872 53.1185 242.872 47.1483C242.872 41.1599 243.97 36.0204 246.161 31.7299C248.353 27.421 251.348 24.1164 255.149 21.8159C258.949 19.4973 263.268 18.3379 268.11 18.3379C271.086 18.3379 273.864 18.7669 276.439 19.6251C279.034 20.4649 281.362 21.7064 283.426 23.3496C285.49 24.9745 287.199 26.9646 288.55 29.3199C289.902 31.6568 290.816 34.3315 291.291 37.344ZM310.66 19.1047V75.192H302.194V19.1047H310.66ZM323.762 75.192V19.1047H343.766C348.132 19.1047 351.749 19.8989 354.617 21.4874C357.484 23.0756 359.631 25.2483 361.056 28.0053C362.48 30.7439 363.194 33.8294 363.194 37.2619C363.194 40.7126 362.47 43.8163 361.027 46.5731C359.604 49.3119 357.447 51.4845 354.561 53.0911C351.693 54.6796 348.085 55.4738 343.737 55.4738H329.983V48.2985H342.972C345.73 48.2985 347.968 47.8238 349.685 46.8745C351.401 45.9068 352.661 44.5923 353.466 42.9308C354.27 41.2694 354.671 39.3798 354.671 37.2619C354.671 35.144 354.27 33.2634 353.466 31.6203C352.661 29.9771 351.392 28.69 349.658 27.7588C347.939 26.8277 345.674 26.3621 342.862 26.3621H332.229V75.192H323.762ZM373.89 75.192V19.1047H409.074V26.3895H382.357V43.4785H407.237V50.7359H382.357V67.9072H409.402V75.192H373.89ZM445.295 43.5882V50.7085H420.415V43.5882H445.295ZM488.251 33.8385C487.958 31.2459 486.752 29.2377 484.634 27.8135C482.514 26.3712 479.848 25.6501 476.632 25.6501C474.331 25.6501 472.34 26.0153 470.66 26.7456C468.978 27.4576 467.672 28.4434 466.74 29.7031C465.828 30.9448 465.371 32.3597 465.371 33.9482C465.371 35.2808 465.681 36.4311 466.302 37.3988C466.941 38.3664 467.772 39.1789 468.797 39.8361C469.836 40.4753 470.951 41.0138 472.14 41.452C473.326 41.8719 474.468 42.2188 475.564 42.4927L481.044 43.9167C482.834 44.355 484.671 44.9482 486.551 45.6969C488.434 46.4455 490.178 47.4313 491.785 48.6546C493.394 49.8779 494.69 51.3931 495.676 53.2008C496.681 55.0081 497.184 57.1717 497.184 59.6913C497.184 62.8682 496.361 65.6889 494.717 68.1536C493.091 70.6184 490.726 72.563 487.62 73.987C484.534 75.411 480.797 76.1232 476.412 76.1232C472.211 76.1232 468.577 75.4567 465.508 74.1239C462.438 72.791 460.037 70.9014 458.301 68.455C456.567 65.9902 455.606 63.0689 455.425 59.6913H463.918C464.082 61.718 464.74 63.4067 465.891 64.7578C467.06 66.0907 468.55 67.0857 470.357 67.743C472.184 68.3819 474.184 68.7014 476.358 68.7014C478.752 68.7014 480.88 68.3272 482.744 67.5785C484.624 66.8117 486.104 65.7529 487.182 64.4017C488.261 63.0325 488.799 61.4349 488.799 59.6091C488.799 57.9478 488.324 56.5876 487.373 55.5285C486.441 54.4697 485.172 53.5932 483.565 52.8995C481.976 52.2058 480.176 51.594 478.168 51.0646L471.536 49.2571C467.043 48.0338 463.48 46.2355 460.849 43.862C458.237 41.4884 456.931 38.3483 456.931 34.441C456.931 31.2095 457.809 28.3886 459.562 25.9786C461.316 23.5686 463.69 21.6973 466.686 20.3645C469.682 19.0134 473.062 18.3379 476.825 18.3379C480.623 18.3379 483.976 19.0043 486.881 20.3371C489.804 21.6699 492.105 23.5048 493.785 25.8417C495.465 28.1605 496.343 30.826 496.416 33.8385H488.251ZM508.074 75.192V19.1047H543.255V26.3895H516.54V43.4785H541.419V50.7359H516.54V67.9072H543.585V75.192H508.074ZM565.009 19.1047L564.297 59.0614H556.706L555.995 19.1047H565.009ZM560.516 75.7124C559 75.7124 557.702 75.1829 556.625 74.1239C555.547 73.0467 555.017 71.7505 555.036 70.2351C555.017 68.738 555.547 67.4599 556.625 66.4009C557.702 65.3237 559 64.7852 560.516 64.7852C561.996 64.7852 563.275 65.3237 564.351 66.4009C565.43 67.4599 565.977 68.738 565.997 70.2351C565.977 71.2392 565.713 72.1612 565.202 73.001C564.708 73.8227 564.05 74.48 563.229 74.973C562.407 75.4658 561.502 75.7124 560.516 75.7124Z" fill="#09A69C"/>
<path d="M92.0312 223.648V219.211L108.702 200.972C110.659 198.836 112.27 196.98 113.536 195.4C114.802 193.808 115.739 192.312 116.347 190.915C116.972 189.502 117.284 188.023 117.284 186.479C117.284 184.704 116.857 183.168 116.002 181.87C115.163 180.572 114.012 179.569 112.549 178.863C111.086 178.156 109.442 177.803 107.617 177.803C105.677 177.803 103.984 178.205 102.537 179.011C101.107 179.799 99.9968 180.908 99.2076 182.338C98.4349 183.767 98.0485 185.444 98.0485 187.366H92.2286C92.2286 184.408 92.9109 181.812 94.2755 179.577C95.6401 177.343 97.4977 175.601 99.8488 174.352C102.216 173.103 104.871 172.479 107.814 172.479C110.774 172.479 113.396 173.103 115.681 174.352C117.966 175.601 119.758 177.285 121.057 179.405C122.356 181.525 123.005 183.883 123.005 186.479C123.005 188.336 122.668 190.151 121.994 191.926C121.337 193.685 120.186 195.647 118.542 197.816C116.914 199.97 114.654 202.598 111.76 205.704L100.416 217.831V218.226H123.893V223.648H92.0312ZM152.528 173.169V223.648H146.413V179.577H146.117L133.786 187.761V181.549L146.413 173.169H152.528ZM204.054 172.479C206.125 172.495 208.195 172.89 210.267 173.662C212.339 174.434 214.229 175.716 215.94 177.507C217.649 179.282 219.023 181.705 220.059 184.778C221.095 187.851 221.612 191.704 221.612 196.337C221.612 200.824 221.183 204.809 220.329 208.293C219.492 211.76 218.274 214.684 216.679 217.067C215.101 219.448 213.178 221.257 210.909 222.489C208.656 223.721 206.108 224.338 203.265 224.338C200.437 224.338 197.912 223.779 195.693 222.662C193.49 221.529 191.682 219.959 190.268 217.954C188.87 215.934 187.974 213.591 187.579 210.929H193.596C194.14 213.246 195.217 215.161 196.827 216.672C198.456 218.168 200.601 218.914 203.265 218.914C207.161 218.914 210.234 217.214 212.487 213.813C214.756 210.412 215.89 205.605 215.89 199.393H215.497C214.575 200.774 213.481 201.965 212.215 202.968C210.95 203.97 209.544 204.744 207.999 205.285C206.453 205.827 204.81 206.099 203.066 206.099C200.172 206.099 197.518 205.384 195.101 203.955C192.701 202.509 190.777 200.529 189.33 198.015C187.9 195.483 187.185 192.591 187.185 189.338C187.185 186.249 187.875 183.423 189.257 180.859C190.654 178.279 192.61 176.225 195.126 174.697C197.657 173.169 200.633 172.43 204.054 172.479ZM204.054 177.901C201.982 177.901 200.116 178.419 198.456 179.454C196.81 180.473 195.504 181.853 194.534 183.595C193.581 185.32 193.104 187.235 193.104 189.338C193.104 191.441 193.564 193.355 194.484 195.08C195.421 196.791 196.696 198.154 198.307 199.172C199.935 200.174 201.785 200.675 203.855 200.675C205.417 200.675 206.872 200.373 208.22 199.764C209.569 199.139 210.744 198.292 211.747 197.224C212.767 196.141 213.564 194.917 214.139 193.553C214.715 192.172 215.003 190.735 215.003 189.239C215.003 187.268 214.526 185.419 213.571 183.694C212.636 181.968 211.336 180.572 209.675 179.504C208.031 178.435 206.158 177.901 204.054 177.901ZM232.225 223.648L254.816 178.986V178.592H228.774V173.169H261.128V178.887L238.637 223.648H232.225ZM271.016 223.648V219.211L287.687 200.972C289.643 198.836 291.254 196.98 292.519 195.4C293.786 193.808 294.722 192.312 295.332 190.915C295.957 189.502 296.269 188.023 296.269 186.479C296.269 184.704 295.841 183.168 294.986 181.87C294.147 180.572 292.996 179.569 291.533 178.863C290.069 178.156 288.426 177.803 286.601 177.803C284.66 177.803 282.968 178.205 281.522 179.011C280.09 179.799 278.981 180.908 278.192 182.338C277.419 183.767 277.033 185.444 277.033 187.366H271.213C271.213 184.408 271.896 181.812 273.26 179.577C274.623 177.343 276.481 175.601 278.833 174.352C281.199 173.103 283.856 172.479 286.798 172.479C289.759 172.479 292.38 173.103 294.666 174.352C296.95 175.601 298.742 177.285 300.04 179.405C301.341 181.525 301.989 183.883 301.989 186.479C301.989 188.336 301.653 190.151 300.978 191.926C300.32 193.685 299.17 195.647 297.527 197.816C295.899 199.97 293.638 202.598 290.744 205.704L279.4 217.831V218.226H302.878V223.648H271.016ZM313.756 223.648V219.211L330.428 200.972C332.384 198.836 333.995 196.98 335.261 195.4C336.526 193.808 337.464 192.312 338.073 190.915C338.696 189.502 339.009 188.023 339.009 186.479C339.009 184.704 338.582 183.168 337.728 181.87C336.889 180.572 335.737 179.569 334.275 178.863C332.811 178.156 331.167 177.803 329.342 177.803C327.402 177.803 325.71 178.205 324.263 179.011C322.832 179.799 321.723 180.908 320.934 182.338C320.16 183.767 319.774 185.444 319.774 187.366H313.954C313.954 184.408 314.635 181.812 316.001 179.577C317.365 177.343 319.223 175.601 321.574 174.352C323.941 173.103 326.597 172.479 329.539 172.479C332.498 172.479 335.122 173.103 337.406 174.352C339.692 175.601 341.484 177.285 342.782 179.405C344.082 181.525 344.73 183.883 344.73 186.479C344.73 188.336 344.395 190.151 343.719 191.926C343.062 193.685 341.912 195.647 340.266 197.816C338.64 199.97 336.379 202.598 333.486 205.704L322.141 217.831V218.226H345.62V223.648H313.756ZM372.971 224.338C369.256 224.338 366.09 223.328 363.477 221.307C360.863 219.269 358.866 216.319 357.485 212.457C356.104 208.58 355.413 203.897 355.413 198.408C355.413 192.954 356.104 188.295 357.485 184.433C358.882 180.555 360.888 177.598 363.502 175.56C366.133 173.506 369.289 172.479 372.971 172.479C376.654 172.479 379.802 173.506 382.416 175.56C385.047 177.598 387.053 180.555 388.434 184.433C389.831 188.295 390.529 192.954 390.529 198.408C390.529 203.897 389.839 208.58 388.459 212.457C387.078 216.319 385.08 219.269 382.466 221.307C379.852 223.328 376.687 224.338 372.971 224.338ZM372.971 218.914C376.654 218.914 379.515 217.141 381.554 213.591C383.593 210.042 384.611 204.981 384.611 198.408C384.611 194.037 384.142 190.316 383.207 187.243C382.285 184.17 380.954 181.829 379.212 180.218C377.485 178.608 375.404 177.803 372.971 177.803C369.322 177.803 366.469 179.602 364.414 183.201C362.36 186.783 361.331 191.852 361.331 198.408C361.331 202.779 361.793 206.492 362.713 209.55C363.633 212.606 364.956 214.931 366.683 216.524C368.426 218.118 370.521 218.914 372.971 218.914ZM422.395 195.697V201.119H400.3V195.697H422.395ZM432.048 213.296V208.268L454.243 173.169H457.893V180.958H455.428L438.657 207.479V207.873H468.547V213.296H432.048ZM455.821 223.648V211.767V209.427V173.169H461.641V223.648H455.821ZM480.062 223.648L502.65 178.986V178.592H476.609V173.169H508.964V178.887L486.474 223.648H480.062ZM533.955 224.338C531.061 224.338 528.455 223.763 526.138 222.612C523.82 221.461 521.962 219.884 520.565 217.881C519.167 215.876 518.403 213.591 518.272 211.029H524.19C524.42 213.312 525.455 215.201 527.298 216.697C529.155 218.176 531.374 218.914 533.955 218.914C536.027 218.914 537.869 218.43 539.48 217.461C541.108 216.491 542.381 215.161 543.301 213.468C544.238 211.76 544.707 209.828 544.707 207.676C544.707 205.474 544.223 203.51 543.253 201.786C542.3 200.043 540.984 198.67 539.306 197.67C537.63 196.667 535.714 196.156 533.561 196.141C532.016 196.123 530.429 196.363 528.8 196.856C527.174 197.332 525.834 197.947 524.782 198.703L519.061 198.015L522.118 173.169H548.357V178.592H527.248L525.473 193.478H525.768C526.804 192.657 528.102 191.975 529.665 191.433C531.225 190.891 532.853 190.62 534.547 190.62C537.637 190.62 540.392 191.359 542.809 192.838C545.242 194.3 547.149 196.305 548.531 198.852C549.927 201.398 550.625 204.308 550.625 207.578C550.625 210.797 549.902 213.674 548.455 216.204C547.026 218.718 545.053 220.705 542.537 222.169C540.022 223.615 537.161 224.338 533.955 224.338ZM561.117 223.648V219.211L577.788 200.972C579.744 198.836 581.355 196.98 582.622 195.4C583.888 193.808 584.825 192.312 585.433 190.915C586.058 189.502 586.37 188.023 586.37 186.479C586.37 184.704 585.942 183.168 585.088 181.87C584.249 180.572 583.099 179.569 581.635 178.863C580.172 178.156 578.527 177.803 576.702 177.803C574.763 177.803 573.07 178.205 571.623 179.011C570.192 179.799 569.082 180.908 568.293 182.338C567.52 183.767 567.134 185.444 567.134 187.366H561.314C561.314 184.408 561.997 181.812 563.361 179.577C564.727 177.343 566.584 175.601 568.934 174.352C571.303 173.103 573.957 172.479 576.901 172.479C579.86 172.479 582.482 173.103 584.767 174.352C587.051 175.601 588.843 177.285 590.144 179.405C591.442 181.525 592.092 183.883 592.092 186.479C592.092 188.336 591.754 190.151 591.079 191.926C590.423 193.685 589.272 195.647 587.628 197.816C586 199.97 583.739 202.598 580.846 205.704L569.501 217.831V218.226H592.979V223.648H561.117Z" fill="#09A69C"/>
<path d="M24.5111 92.5443C24.2097 91.6223 23.8124 90.7962 23.3191 90.0659C22.8351 89.3265 22.255 88.6966 21.5793 88.1762C20.9124 87.6559 20.1543 87.2587 19.305 86.9849C18.4555 86.7109 17.5239 86.5741 16.51 86.5741C14.8477 86.5741 13.3361 87.003 11.9752 87.8612C10.6142 88.7193 9.5319 89.9837 8.72815 91.6543C7.92438 93.3247 7.52251 95.3742 7.52251 97.8025C7.52251 100.231 7.92895 102.28 8.74185 103.951C9.55474 105.621 10.6554 106.886 12.0437 107.744C13.432 108.602 14.9938 109.031 16.7292 109.031C18.3368 109.031 19.7525 108.689 20.9765 108.004C22.2095 107.31 23.1684 106.333 23.8534 105.074C24.5477 103.805 24.8947 102.312 24.8947 100.596L25.936 100.815H17.4965V97.8025H28.183V100.815C28.183 103.125 27.6897 105.133 26.7032 106.84C25.726 108.547 24.3741 109.871 22.6478 110.811C20.9308 111.742 18.9579 112.208 16.7292 112.208C14.2449 112.208 12.0619 111.623 10.1804 110.455C8.30799 109.286 6.84661 107.625 5.79624 105.471C4.755 103.316 4.23438 100.76 4.23438 97.8025C4.23438 95.5842 4.53121 93.5895 5.12491 91.8186C5.72774 90.0385 6.57717 88.5231 7.6732 87.2724C8.76924 86.0219 10.0662 85.0633 11.5642 84.3968C13.0621 83.7304 14.7107 83.3973 16.51 83.3973C17.9897 83.3973 19.3688 83.6209 20.6476 84.0682C21.9354 84.5065 23.0816 85.1317 24.0865 85.9442C25.1002 86.7476 25.9451 87.7106 26.621 88.8335C27.297 89.9471 27.7628 91.1841 28.0184 92.5443H24.5111ZM41.6854 112.317C40.3519 112.317 39.1416 112.066 38.0548 111.564C36.968 111.053 36.1047 110.318 35.4654 109.36C34.826 108.392 34.5063 107.223 34.5063 105.854C34.5063 104.649 34.7438 103.672 35.2187 102.924C35.6937 102.166 36.3285 101.573 37.1231 101.144C37.9178 100.715 38.7946 100.395 39.7537 100.185C40.7219 99.9659 41.6945 99.7926 42.6719 99.6648C43.9505 99.5005 44.9871 99.3771 45.7819 99.295C46.5855 99.2038 47.1702 99.053 47.5356 98.8431C47.91 98.6331 48.0973 98.2679 48.0973 97.7478V97.6381C48.0973 96.2871 47.7273 95.2373 46.9876 94.4887C46.2568 93.7402 45.1471 93.3658 43.6582 93.3658C42.1146 93.3658 40.9045 93.7036 40.0276 94.3792C39.1509 95.0547 38.5343 95.7758 38.1781 96.5428L35.1092 95.4473C35.6572 94.1692 36.3879 93.1742 37.3013 92.4622C38.2238 91.7409 39.2284 91.2389 40.3154 90.9558C41.4115 90.6637 42.4892 90.5178 43.5487 90.5178C44.2246 90.5178 45.0008 90.5999 45.8778 90.7642C46.7638 90.9194 47.6178 91.2435 48.4397 91.7365C49.2709 92.2293 49.9606 92.9733 50.5086 93.9683C51.0567 94.9634 51.3306 96.2962 51.3306 97.9668V111.824H48.0973V108.976H47.9328C47.7136 109.433 47.3483 109.921 46.8369 110.441C46.3253 110.962 45.6449 111.404 44.7954 111.77C43.9461 112.135 42.9094 112.317 41.6854 112.317ZM42.1787 109.414C43.4574 109.414 44.5352 109.163 45.4119 108.661C46.2979 108.159 46.9646 107.511 47.4121 106.717C47.8689 105.922 48.0973 105.087 48.0973 104.211V101.253C47.9602 101.418 47.6589 101.568 47.193 101.705C46.7364 101.833 46.2065 101.947 45.6037 102.047C45.0101 102.139 44.43 102.221 43.8639 102.294C43.3066 102.358 42.8546 102.413 42.5074 102.458C41.6671 102.568 40.8816 102.746 40.1509 102.992C39.4294 103.229 38.8449 103.59 38.3974 104.074C37.9589 104.549 37.7396 105.197 37.7396 106.018C37.7396 107.141 38.1553 107.99 38.9865 108.565C39.8268 109.131 40.8908 109.414 42.1787 109.414ZM59.1611 111.824V90.7916H62.2848V93.9683H62.5041C62.8876 92.9278 63.5819 92.0833 64.5865 91.4351C65.5911 90.7869 66.7239 90.463 67.9843 90.463C68.2218 90.463 68.5186 90.4675 68.8747 90.4767C69.231 90.4858 69.5005 90.4995 69.683 90.5178V93.8041C69.5734 93.7767 69.3223 93.7356 68.9295 93.6809C68.546 93.6168 68.1396 93.585 67.7102 93.585C66.6872 93.585 65.7738 93.7994 64.9702 94.2286C64.1754 94.6485 63.5452 95.2327 63.0795 95.9813C62.6227 96.7207 62.3943 97.5652 62.3943 98.5145V111.824H59.1611ZM81.6374 112.317C80.3039 112.317 79.0938 112.066 78.0068 111.564C76.92 111.053 76.0567 110.318 75.4174 109.36C74.7782 108.392 74.4583 107.223 74.4583 105.854C74.4583 104.649 74.696 103.672 75.1709 102.924C75.6458 102.166 76.2805 101.573 77.0752 101.144C77.8698 100.715 78.7468 100.395 79.7057 100.185C80.6739 99.9659 81.6467 99.7926 82.6239 99.6648C83.9027 99.5005 84.9393 99.3771 85.7339 99.295C86.5377 99.2038 87.1222 99.053 87.4876 98.8431C87.862 98.6331 88.0493 98.2679 88.0493 97.7478V97.6381C88.0493 96.2871 87.6793 95.2373 86.9395 94.4887C86.2088 93.7402 85.0991 93.3658 83.6104 93.3658C82.0668 93.3658 80.8565 93.7036 79.9798 94.3792C79.1029 95.0547 78.4863 95.7758 78.1302 96.5428L75.0611 95.4473C75.6092 94.1692 76.3399 93.1742 77.2533 92.4622C78.1758 91.7409 79.1806 91.2389 80.2674 90.9558C81.3635 90.6637 82.4412 90.5178 83.5007 90.5178C84.1766 90.5178 84.953 90.5999 85.8298 90.7642C86.7158 90.9194 87.5698 91.2435 88.3919 91.7365C89.2229 92.2293 89.9126 92.9733 90.4606 93.9683C91.0086 94.9634 91.2826 96.2962 91.2826 97.9668V111.824H88.0493V108.976H87.885C87.6656 109.433 87.3003 109.921 86.7889 110.441C86.2773 110.962 85.5969 111.404 84.7476 111.77C83.898 112.135 82.8614 112.317 81.6374 112.317ZM82.1307 109.414C83.4094 109.414 84.4872 109.163 85.3641 108.661C86.2499 108.159 86.9168 107.511 87.3643 106.717C87.8209 105.922 88.0493 105.087 88.0493 104.211V101.253C87.9124 101.418 87.6108 101.568 87.1452 101.705C86.6884 101.833 86.1587 101.947 85.5559 102.047C84.9621 102.139 84.3822 102.221 83.8159 102.294C83.2588 102.358 82.8066 102.413 82.4596 102.458C81.6193 102.568 80.8338 102.746 80.1031 102.992C79.3814 103.229 78.7969 103.59 78.3494 104.074C77.9109 104.549 77.6918 105.197 77.6918 106.018C77.6918 107.141 78.1073 107.99 78.9385 108.565C79.7788 109.131 80.8428 109.414 82.1307 109.414ZM102.347 99.1718V111.824H99.1131V90.7916H102.237V94.078H102.511C103.004 93.0099 103.753 92.1518 104.758 91.5036C105.762 90.8463 107.06 90.5178 108.649 90.5178C110.074 90.5178 111.32 90.8099 112.389 91.3941C113.458 91.9692 114.289 92.8454 114.883 94.0231C115.476 95.1916 115.773 96.6706 115.773 98.4598V111.824H112.54V98.6788C112.54 97.0265 112.11 95.7394 111.252 94.8174C110.393 93.8862 109.215 93.4206 107.717 93.4206C106.685 93.4206 105.762 93.6442 104.95 94.0917C104.146 94.539 103.511 95.1916 103.045 96.0498C102.579 96.9079 102.347 97.9485 102.347 99.1718ZM132.762 90.7916V93.5303H121.857V90.7916H132.762ZM125.035 85.7525H128.268V105.799C128.268 106.712 128.401 107.397 128.666 107.853C128.94 108.3 129.287 108.602 129.707 108.757C130.136 108.903 130.589 108.976 131.063 108.976C131.42 108.976 131.712 108.958 131.94 108.921C132.169 108.876 132.351 108.839 132.488 108.812L133.146 111.715C132.927 111.797 132.621 111.879 132.228 111.961C131.835 112.053 131.337 112.098 130.735 112.098C129.821 112.098 128.926 111.902 128.049 111.509C127.182 111.117 126.46 110.519 125.885 109.715C125.318 108.912 125.035 107.899 125.035 106.676V85.7525ZM145.748 112.317C144.414 112.317 143.204 112.066 142.117 111.564C141.03 111.053 140.167 110.318 139.528 109.36C138.888 108.392 138.569 107.223 138.569 105.854C138.569 104.649 138.806 103.672 139.281 102.924C139.756 102.166 140.391 101.573 141.185 101.144C141.98 100.715 142.857 100.395 143.816 100.185C144.784 99.9659 145.757 99.7926 146.734 99.6648C148.013 99.5005 149.05 99.3771 149.844 99.295C150.648 99.2038 151.232 99.053 151.598 98.8431C151.972 98.6331 152.16 98.2679 152.16 97.7478V97.6381C152.16 96.2871 151.79 95.2373 151.05 94.4887C150.319 93.7402 149.209 93.3658 147.72 93.3658C146.177 93.3658 144.967 93.7036 144.09 94.3792C143.213 95.0547 142.597 95.7758 142.24 96.5428L139.171 95.4473C139.719 94.1692 140.45 93.1742 141.364 92.4622C142.286 91.7409 143.291 91.2389 144.378 90.9558C145.474 90.6637 146.551 90.5178 147.611 90.5178C148.287 90.5178 149.063 90.5999 149.94 90.7642C150.826 90.9194 151.68 91.2435 152.502 91.7365C153.333 92.2293 154.023 92.9733 154.571 93.9683C155.119 94.9634 155.393 96.2962 155.393 97.9668V111.824H152.16V108.976H151.995C151.776 109.433 151.41 109.921 150.899 110.441C150.388 110.962 149.707 111.404 148.858 111.77C148.008 112.135 146.972 112.317 145.748 112.317ZM146.241 109.414C147.52 109.414 148.597 109.163 149.474 108.661C150.36 108.159 151.027 107.511 151.475 106.717C151.931 105.922 152.16 105.087 152.16 104.211V101.253C152.023 101.418 151.721 101.568 151.255 101.705C150.799 101.833 150.269 101.947 149.666 102.047C149.072 102.139 148.492 102.221 147.926 102.294C147.369 102.358 146.917 102.413 146.57 102.458C145.729 102.568 144.944 102.746 144.213 102.992C143.492 103.229 142.907 103.59 142.46 104.074C142.021 104.549 141.802 105.197 141.802 106.018C141.802 107.141 142.218 107.99 143.049 108.565C143.889 109.131 144.953 109.414 146.241 109.414ZM184.552 112.263C182.579 112.263 180.881 111.797 179.456 110.866C178.031 109.935 176.935 108.652 176.168 107.018C175.4 105.384 175.017 103.517 175.017 101.418C175.017 99.2813 175.41 97.3963 176.195 95.7621C176.99 94.1191 178.095 92.8364 179.511 91.9144C180.935 90.9832 182.598 90.5178 184.497 90.5178C185.977 90.5178 187.311 90.7916 188.498 91.3393C189.685 91.887 190.658 92.6538 191.416 93.6398C192.174 94.6256 192.645 95.7758 192.827 97.0905H189.594C189.347 96.1319 188.799 95.283 187.95 94.5434C187.11 93.795 185.977 93.4206 184.552 93.4206C183.292 93.4206 182.187 93.7493 181.237 94.4066C180.296 95.0547 179.561 95.9721 179.031 97.159C178.51 98.3366 178.25 99.7195 178.25 101.308C178.25 102.933 178.506 104.348 179.017 105.553C179.538 106.758 180.269 107.694 181.209 108.36C182.159 109.026 183.274 109.36 184.552 109.36C185.393 109.36 186.155 109.213 186.84 108.921C187.525 108.629 188.105 108.209 188.58 107.662C189.055 107.114 189.393 106.457 189.594 105.69H192.827C192.645 106.931 192.193 108.049 191.471 109.045C190.759 110.03 189.813 110.816 188.635 111.4C187.466 111.975 186.105 112.263 184.552 112.263ZM208.032 112.263C206.132 112.263 204.466 111.811 203.032 110.907C201.607 110.003 200.492 108.739 199.689 107.114C198.895 105.489 198.497 103.59 198.497 101.418C198.497 99.2266 198.895 97.3142 199.689 95.68C200.492 94.046 201.607 92.777 203.032 91.8734C204.466 90.9695 206.132 90.5178 208.032 90.5178C209.933 90.5178 211.595 90.9695 213.019 91.8734C214.454 92.777 215.567 94.046 216.362 95.68C217.166 97.3142 217.568 99.2266 217.568 101.418C217.568 103.59 217.166 105.489 216.362 107.114C215.567 108.739 214.454 110.003 213.019 110.907C211.595 111.811 209.933 112.263 208.032 112.263ZM208.032 109.36C209.475 109.36 210.664 108.99 211.595 108.25C212.525 107.511 213.216 106.539 213.663 105.334C214.111 104.129 214.335 102.823 214.335 101.418C214.335 100.012 214.111 98.7018 213.663 97.4875C213.216 96.2734 212.525 95.2921 211.595 94.5434C210.664 93.795 209.475 93.4206 208.032 93.4206C206.59 93.4206 205.401 93.795 204.47 94.5434C203.538 95.2921 202.849 96.2734 202.402 97.4875C201.954 98.7018 201.73 100.012 201.73 101.418C201.73 102.823 201.954 104.129 202.402 105.334C202.849 106.539 203.538 107.511 204.47 108.25C205.401 108.99 206.59 109.36 208.032 109.36ZM227.666 99.1718V111.824H224.433V90.7916H227.556V94.078H227.83C228.324 93.0099 229.072 92.1518 230.077 91.5036C231.082 90.8463 232.379 90.5178 233.968 90.5178C235.394 90.5178 236.64 90.8099 237.709 91.3941C238.777 91.9692 239.609 92.8454 240.201 94.0231C240.795 95.1916 241.092 96.6706 241.092 98.4598V111.824H237.859V98.6788C237.859 97.0265 237.429 95.7394 236.571 94.8174C235.712 93.8862 234.533 93.4206 233.037 93.4206C232.005 93.4206 231.082 93.6442 230.268 94.0917C229.466 94.539 228.831 95.1916 228.364 96.0498C227.9 96.9079 227.666 97.9485 227.666 99.1718ZM256.876 112.263C255.122 112.263 253.575 111.82 252.232 110.934C250.89 110.04 249.838 108.78 249.08 107.155C248.322 105.521 247.944 103.59 247.944 101.363C247.944 99.1535 248.322 97.2365 249.08 95.6116C249.838 93.9866 250.894 92.7315 252.246 91.846C253.596 90.9604 255.159 90.5178 256.931 90.5178C258.301 90.5178 259.383 90.7459 260.178 91.2024C260.982 91.6497 261.594 92.1608 262.014 92.7359C262.443 93.302 262.776 93.7676 263.014 94.1328H263.288V83.7806H266.521V111.824H263.398V108.593H263.014C262.776 108.976 262.439 109.46 261.999 110.044C261.561 110.619 260.936 111.135 260.122 111.592C259.31 112.039 258.228 112.263 256.876 112.263ZM257.313 109.36C258.612 109.36 259.707 109.022 260.602 108.346C261.497 107.662 262.178 106.717 262.643 105.512C263.11 104.298 263.342 102.896 263.342 101.308C263.342 99.7379 263.114 98.364 262.657 97.1863C262.202 95.9995 261.524 95.0775 260.629 94.4202C259.734 93.7539 258.629 93.4206 257.313 93.4206C255.944 93.4206 254.802 93.772 253.889 94.475C252.985 95.1689 252.304 96.1136 251.848 97.3095C251.401 98.4962 251.177 99.8291 251.177 101.308C251.177 102.805 251.405 104.165 251.862 105.388C252.327 106.603 253.012 107.57 253.916 108.291C254.831 109.003 255.963 109.36 257.313 109.36ZM274.821 111.824V90.7916H278.054V111.824H274.821ZM276.465 87.2861C275.834 87.2861 275.292 87.0717 274.835 86.6425C274.387 86.2135 274.164 85.6978 274.164 85.0953C274.164 84.4928 274.387 83.9768 274.835 83.5479C275.292 83.1189 275.834 82.9043 276.465 82.9043C277.096 82.9043 277.634 83.1189 278.081 83.5479C278.539 83.9768 278.766 84.4928 278.766 85.0953C278.766 85.6978 278.539 86.2135 278.081 86.6425C277.634 87.0717 277.096 87.2861 276.465 87.2861ZM294.455 112.263C292.482 112.263 290.782 111.797 289.358 110.866C287.933 109.935 286.837 108.652 286.069 107.018C285.302 105.384 284.92 103.517 284.92 101.418C284.92 99.2813 285.311 97.3963 286.097 95.7621C286.891 94.1191 287.997 92.8364 289.413 91.9144C290.838 90.9832 292.499 90.5178 294.399 90.5178C295.879 90.5178 297.214 90.7916 298.4 91.3393C299.588 91.887 300.56 92.6538 301.318 93.6398C302.077 94.6256 302.547 95.7758 302.729 97.0905H299.496C299.249 96.1319 298.701 95.283 297.852 94.5434C297.011 93.795 295.879 93.4206 294.455 93.4206C293.193 93.4206 292.088 93.7493 291.139 94.4066C290.198 95.0547 289.463 95.9721 288.932 97.159C288.413 98.3366 288.153 99.7195 288.153 101.308C288.153 102.933 288.407 104.348 288.919 105.553C289.44 106.758 290.171 107.694 291.112 108.36C292.061 109.026 293.176 109.36 294.455 109.36C295.294 109.36 296.058 109.213 296.743 108.921C297.428 108.629 298.008 108.209 298.483 107.662C298.957 107.114 299.295 106.457 299.496 105.69H302.729C302.547 106.931 302.094 108.049 301.373 109.045C300.661 110.03 299.715 110.816 298.537 111.4C297.368 111.975 296.008 112.263 294.455 112.263ZM292.919 111.715H295.605L295.387 112.81C296.099 112.92 296.752 113.217 297.345 113.7C297.939 114.193 298.236 114.974 298.236 116.042C298.236 117.219 297.748 118.178 296.77 118.917C295.801 119.666 294.372 120.04 292.482 120.04L292.372 117.904C293.22 117.904 293.925 117.767 294.482 117.493C295.047 117.228 295.331 116.781 295.331 116.151C295.331 115.521 295.097 115.092 294.632 114.864C294.168 114.636 293.413 114.481 292.372 114.399L292.919 111.715ZM317.935 112.263C316.035 112.263 314.368 111.811 312.933 110.907C311.51 110.003 310.395 108.739 309.59 107.114C308.795 105.489 308.398 103.59 308.398 101.418C308.398 99.2266 308.795 97.3142 309.59 95.68C310.395 94.046 311.51 92.777 312.933 91.8734C314.368 90.9695 316.035 90.5178 317.935 90.5178C319.833 90.5178 321.496 90.9695 322.922 91.8734C324.355 92.777 325.47 94.046 326.265 95.68C327.067 97.3142 327.47 99.2266 327.47 101.418C327.47 103.59 327.067 105.489 326.265 107.114C325.47 108.739 324.355 110.003 322.922 110.907C321.496 111.811 319.833 112.263 317.935 112.263ZM317.935 109.36C319.378 109.36 320.564 108.99 321.496 108.25C322.428 107.511 323.118 106.539 323.566 105.334C324.014 104.129 324.237 102.823 324.237 101.418C324.237 100.012 324.014 98.7018 323.566 97.4875C323.118 96.2734 322.428 95.2921 321.496 94.5434C320.564 93.795 319.378 93.4206 317.935 93.4206C316.49 93.4206 315.304 93.795 314.372 94.5434C313.441 95.2921 312.752 96.2734 312.304 97.4875C311.857 98.7018 311.633 100.012 311.633 101.418C311.633 102.823 311.857 104.129 312.304 105.334C312.752 106.539 313.441 107.511 314.372 108.25C315.304 108.99 316.49 109.36 317.935 109.36ZM313.714 88.272L311.193 88.1625C311.193 86.7657 311.591 85.6247 312.385 84.7392C313.19 83.8446 314.181 83.3973 315.358 83.3973C315.879 83.3973 316.34 83.4885 316.743 83.6711C317.144 83.8446 317.528 84.0455 317.893 84.2736C318.259 84.5018 318.633 84.7072 319.017 84.8898C319.409 85.0633 319.853 85.15 320.346 85.15C320.865 85.15 321.305 84.9491 321.66 84.5475C322.027 84.1367 322.208 83.6437 322.208 83.0686L324.675 83.2878C324.675 84.7118 324.274 85.8437 323.47 86.6836C322.675 87.5234 321.689 87.9433 320.51 87.9433C319.88 87.9433 319.359 87.8567 318.948 87.6832C318.537 87.5006 318.172 87.2953 317.852 87.067C317.532 86.8388 317.194 86.6381 316.838 86.4645C316.483 86.282 316.043 86.1906 315.524 86.1906C315.003 86.1906 314.569 86.3961 314.222 86.8068C313.884 87.2086 313.714 87.6969 313.714 88.272ZM343.157 112.263C341.13 112.263 339.38 111.815 337.91 110.92C336.448 110.017 335.322 108.757 334.527 107.141C333.742 105.516 333.348 103.627 333.348 101.472C333.348 99.3179 333.742 97.4191 334.527 95.7758C335.322 94.1235 336.427 92.8364 337.843 91.9144C339.266 90.9832 340.929 90.5178 342.829 90.5178C343.925 90.5178 345.007 90.7004 346.076 91.0655C347.145 91.4305 348.117 92.0239 348.995 92.8455C349.87 93.6581 350.571 94.7353 351.089 96.0772C351.61 97.4191 351.871 99.0713 351.871 101.034V102.403H335.649V99.61H348.584C348.584 98.4232 348.346 97.3643 347.87 96.4331C347.405 95.502 346.738 94.7671 345.869 94.2286C345.011 93.6899 343.998 93.4206 342.829 93.4206C341.541 93.4206 340.426 93.7402 339.486 94.3792C338.555 95.009 337.837 95.8306 337.335 96.8439C336.832 97.8573 336.581 98.9435 336.581 100.103V101.965C336.581 103.554 336.855 104.9 337.403 106.005C337.96 107.1 338.732 107.936 339.72 108.51C340.705 109.077 341.851 109.36 343.157 109.36C344.008 109.36 344.774 109.241 345.459 109.003C346.153 108.757 346.751 108.392 347.255 107.908C347.756 107.415 348.144 106.803 348.418 106.073L351.543 106.95C351.213 108.008 350.661 108.94 349.884 109.743C349.108 110.537 348.15 111.158 347.008 111.605C345.866 112.043 344.583 112.263 343.157 112.263ZM373.624 95.502L370.721 96.3236C370.538 95.8398 370.268 95.3696 369.913 94.9132C369.566 94.4476 369.089 94.0643 368.487 93.763C367.884 93.4618 367.112 93.3111 366.173 93.3111C364.884 93.3111 363.811 93.6078 362.953 94.2012C362.102 94.7854 361.678 95.5294 361.678 96.4331C361.678 97.2365 361.971 97.871 362.556 98.3366C363.14 98.802 364.053 99.1901 365.295 99.5005L368.418 100.267C370.301 100.724 371.703 101.422 372.625 102.362C373.547 103.293 374.008 104.494 374.008 105.964C374.008 107.169 373.661 108.246 372.967 109.195C372.282 110.145 371.323 110.893 370.09 111.441C368.858 111.989 367.423 112.263 365.789 112.263C363.642 112.263 361.865 111.797 360.459 110.866C359.053 109.935 358.161 108.574 357.787 106.785L360.856 106.018C361.147 107.15 361.701 107.999 362.513 108.565C363.335 109.131 364.409 109.414 365.733 109.414C367.241 109.414 368.437 109.095 369.323 108.456C370.218 107.808 370.665 107.032 370.665 106.128C370.665 105.398 370.411 104.786 369.898 104.293C369.386 103.791 368.601 103.417 367.542 103.17L364.035 102.349C362.108 101.892 360.692 101.185 359.787 100.226C358.892 99.2586 358.445 98.0489 358.445 96.5975C358.445 95.4107 358.779 94.3609 359.444 93.4481C360.121 92.5352 361.039 91.8186 362.199 91.2982C363.368 90.7779 364.693 90.5178 366.173 90.5178C368.254 90.5178 369.89 90.9741 371.076 91.887C372.272 92.7999 373.123 94.0049 373.624 95.502ZM402.408 112.263C400.38 112.263 398.63 111.815 397.161 110.92C395.698 110.017 394.572 108.757 393.777 107.141C392.99 105.516 392.598 103.627 392.598 101.472C392.598 99.3179 392.99 97.4191 393.777 95.7758C394.572 94.1235 395.675 92.8364 397.091 91.9144C398.517 90.9832 400.179 90.5178 402.08 90.5178C403.175 90.5178 404.257 90.7004 405.326 91.0655C406.395 91.4305 407.367 92.0239 408.245 92.8455C409.121 93.6581 409.819 94.7353 410.34 96.0772C410.861 97.4191 411.121 99.0713 411.121 101.034V102.403H394.9V99.61H407.834C407.834 98.4232 407.595 97.3643 407.12 96.4331C406.655 95.502 405.988 94.7671 405.12 94.2286C404.261 93.6899 403.249 93.4206 402.08 93.4206C400.791 93.4206 399.676 93.7402 398.737 94.3792C397.805 95.009 397.087 95.8306 396.586 96.8439C396.082 97.8573 395.831 98.9435 395.831 100.103V101.965C395.831 103.554 396.105 104.9 396.653 106.005C397.211 107.1 397.982 107.936 398.968 108.51C399.956 109.077 401.102 109.36 402.408 109.36C403.256 109.36 404.024 109.241 404.709 109.003C405.403 108.757 406.001 108.392 406.505 107.908C407.006 107.415 407.394 106.803 407.668 106.073L410.793 106.95C410.463 108.008 409.911 108.94 409.134 109.743C408.359 110.537 407.4 111.158 406.258 111.605C405.116 112.043 403.833 112.263 402.408 112.263ZM419.815 90.7916L424.856 99.3908L429.898 90.7916H433.625L426.829 101.308L433.625 111.824H429.898L424.856 103.663L419.815 111.824H416.088L422.774 101.308L416.088 90.7916H419.815ZM447.85 112.263C445.876 112.263 444.179 111.797 442.753 110.866C441.33 109.935 440.232 108.652 439.466 107.018C438.698 105.384 438.315 103.517 438.315 101.418C438.315 99.2813 438.708 97.3963 439.493 95.7621C440.288 94.1191 441.393 92.8364 442.809 91.9144C444.233 90.9832 445.896 90.5178 447.796 90.5178C449.275 90.5178 450.608 90.7916 451.797 91.3393C452.983 91.887 453.955 92.6538 454.713 93.6398C455.471 94.6256 455.942 95.7758 456.125 97.0905H452.892C452.645 96.1319 452.097 95.283 451.249 94.5434C450.408 93.795 449.275 93.4206 447.85 93.4206C446.59 93.4206 445.485 93.7493 444.534 94.4066C443.594 95.0547 442.859 95.9721 442.329 97.159C441.808 98.3366 441.548 99.7195 441.548 101.308C441.548 102.933 441.804 104.348 442.315 105.553C442.836 106.758 443.567 107.694 444.507 108.36C445.458 109.026 446.571 109.36 447.85 109.36C448.691 109.36 449.453 109.213 450.138 108.921C450.822 108.629 451.403 108.209 451.878 107.662C452.354 107.114 452.692 106.457 452.892 105.69H456.125C455.942 106.931 455.491 108.049 454.769 109.045C454.057 110.03 453.11 110.816 451.933 111.4C450.764 111.975 449.403 112.263 447.85 112.263ZM466.013 83.7806V111.824H462.78V83.7806H466.013ZM487.127 103.225V90.7916H490.362V111.824H487.127V108.264H486.909C486.415 109.332 485.647 110.24 484.607 110.989C483.566 111.728 482.25 112.098 480.661 112.098C479.345 112.098 478.176 111.811 477.154 111.235C476.131 110.651 475.327 109.775 474.742 108.606C474.158 107.429 473.865 105.945 473.865 104.156V90.7916H477.1V103.937C477.1 105.471 477.528 106.694 478.386 107.607C479.254 108.52 480.36 108.976 481.702 108.976C482.507 108.976 483.323 108.771 484.154 108.36C484.995 107.949 485.697 107.319 486.264 106.47C486.839 105.621 487.127 104.54 487.127 103.225ZM513.119 95.502L510.213 96.3236C510.03 95.8398 509.762 95.3696 509.405 94.9132C509.058 94.4476 508.583 94.0643 507.98 93.763C507.378 93.4618 506.606 93.3111 505.665 93.3111C504.376 93.3111 503.304 93.6078 502.445 94.2012C501.596 94.7854 501.172 95.5294 501.172 96.4331C501.172 97.2365 501.463 97.871 502.048 98.3366C502.632 98.802 503.547 99.1901 504.789 99.5005L507.912 100.267C509.793 100.724 511.195 101.422 512.117 102.362C513.039 103.293 513.502 104.494 513.502 105.964C513.502 107.169 513.155 108.246 512.461 109.195C511.776 110.145 510.817 110.893 509.583 111.441C508.35 111.989 506.917 112.263 505.281 112.263C503.136 112.263 501.359 111.797 499.951 110.866C498.545 109.935 497.655 108.574 497.281 106.785L500.348 106.018C500.642 107.15 501.193 107.999 502.007 108.565C502.829 109.131 503.902 109.414 505.227 109.414C506.733 109.414 507.929 109.095 508.817 108.456C509.712 107.808 510.159 107.032 510.159 106.128C510.159 105.398 509.903 104.786 509.392 104.293C508.88 103.791 508.095 103.417 507.034 103.17L503.527 102.349C501.6 101.892 500.184 101.185 499.28 100.226C498.385 99.2586 497.937 98.0489 497.937 96.5975C497.937 95.4107 498.271 94.3609 498.938 93.4481C499.613 92.5352 500.532 91.8186 501.691 91.2982C502.862 90.7779 504.185 90.5178 505.665 90.5178C507.748 90.5178 509.382 90.9741 510.57 91.887C511.766 92.7999 512.615 94.0049 513.119 95.502ZM520.298 111.824V90.7916H523.531V111.824H520.298ZM521.942 87.2861C521.311 87.2861 520.769 87.0717 520.312 86.6425C519.864 86.2135 519.641 85.6978 519.641 85.0953C519.641 84.4928 519.864 83.9768 520.312 83.5479C520.769 83.1189 521.311 82.9043 521.942 82.9043C522.573 82.9043 523.111 83.1189 523.558 83.5479C524.016 83.9768 524.243 84.4928 524.243 85.0953C524.243 85.6978 524.016 86.2135 523.558 86.6425C523.111 87.0717 522.573 87.2861 521.942 87.2861ZM548.59 90.7916L540.808 111.824H537.521L529.739 90.7916H533.246L539.054 107.552H539.274L545.083 90.7916H548.59ZM560.339 112.317C559.004 112.317 557.795 112.066 556.709 111.564C555.621 111.053 554.759 110.318 554.118 109.36C553.48 108.392 553.159 107.223 553.159 105.854C553.159 104.649 553.397 103.672 553.873 102.924C554.348 102.166 554.982 101.573 555.777 101.144C556.572 100.715 557.448 100.395 558.406 100.185C559.375 99.9659 560.349 99.7926 561.325 99.6648C562.604 99.5005 563.64 99.3771 564.435 99.295C565.239 99.2038 565.824 99.053 566.188 98.8431C566.564 98.6331 566.751 98.2679 566.751 97.7478V97.6381C566.751 96.2871 566.381 95.2373 565.64 94.4887C564.911 93.7402 563.8 93.3658 562.313 93.3658C560.768 93.3658 559.558 93.7036 558.68 94.3792C557.805 95.0547 557.187 95.7758 556.832 96.5428L553.763 95.4473C554.311 94.1692 555.042 93.1742 555.955 92.4622C556.877 91.7409 557.882 91.2389 558.97 90.9558C560.065 90.6637 561.142 90.5178 562.203 90.5178C562.878 90.5178 563.655 90.5999 564.531 90.7642C565.417 90.9194 566.271 91.2435 567.093 91.7365C567.924 92.2293 568.615 92.9733 569.163 93.9683C569.711 94.9634 569.984 96.2962 569.984 97.9668V111.824H566.751V108.976H566.586C566.368 109.433 566.001 109.921 565.49 110.441C564.979 110.962 564.298 111.404 563.449 111.77C562.6 112.135 561.562 112.317 560.339 112.317ZM560.831 109.414C562.11 109.414 563.189 109.163 564.066 108.661C564.952 108.159 565.619 107.511 566.067 106.717C566.522 105.922 566.751 105.087 566.751 104.211V101.253C566.614 101.418 566.312 101.568 565.847 101.705C565.389 101.833 564.861 101.947 564.257 102.047C563.663 102.139 563.084 102.221 562.517 102.294C561.96 102.358 561.508 102.413 561.161 102.458C560.32 102.568 559.535 102.746 558.804 102.992C558.082 103.229 557.498 103.59 557.05 104.074C556.612 104.549 556.392 105.197 556.392 106.018C556.392 107.141 556.809 107.99 557.641 108.565C558.48 109.131 559.545 109.414 560.831 109.414ZM592.72 95.502L589.817 96.3236C589.634 95.8398 589.364 95.3696 589.009 94.9132C588.661 94.4476 588.187 94.0643 587.583 93.763C586.981 93.4618 586.208 93.3111 585.268 93.3111C583.98 93.3111 582.907 93.6078 582.049 94.2012C581.198 94.7854 580.774 95.5294 580.774 96.4331C580.774 97.2365 581.067 97.871 581.651 98.3366C582.236 98.802 583.148 99.1901 584.39 99.5005L587.514 100.267C589.396 100.724 590.799 101.422 591.721 102.362C592.643 103.293 593.104 104.494 593.104 105.964C593.104 107.169 592.757 108.246 592.062 109.195C591.377 110.145 590.419 110.893 589.186 111.441C587.953 111.989 586.518 112.263 584.884 112.263C582.737 112.263 580.961 111.797 579.554 110.866C578.148 109.935 577.257 108.574 576.883 106.785L579.952 106.018C580.245 107.15 580.797 107.999 581.609 108.565C582.433 109.131 583.505 109.414 584.828 109.414C586.337 109.414 587.533 109.095 588.418 108.456C589.313 107.808 589.761 107.032 589.761 106.128C589.761 105.398 589.506 104.786 588.995 104.293C588.482 103.791 587.697 103.417 586.638 103.17L583.131 102.349C581.204 101.892 579.788 101.185 578.883 100.226C577.988 99.2586 577.54 98.0489 577.54 96.5975C577.54 95.4107 577.874 94.3609 578.542 93.4481C579.217 92.5352 580.135 91.8186 581.294 91.2982C582.463 90.7779 583.789 90.5178 585.268 90.5178C587.35 90.5178 588.985 90.9741 590.172 91.887C591.37 92.7999 592.218 94.0049 592.72 95.502Z" fill="#09A69C"/>
<path d="M54.3814 175.111C48.3992 169.101 40.4341 165.808 31.9569 165.808C14.491 165.808 0.255913 180.035 0.255913 197.492C0.255913 203.087 1.7274 208.522 4.47846 213.317L0 229.752L16.7942 225.338C21.4327 227.864 26.6469 229.208 31.9569 229.208C49.423 229.208 63.6581 214.981 63.6581 197.523C63.6581 189.051 60.3633 181.09 54.3814 175.111ZM31.9569 223.837C27.2227 223.837 22.5841 222.558 18.5216 220.16L17.5619 219.583L7.58139 222.205L10.2365 212.486L9.59669 211.495C6.97361 207.308 5.56609 202.447 5.56609 197.492C5.56609 182.976 17.402 171.147 31.9249 171.147C38.9626 171.147 45.5844 173.897 50.5426 178.884C55.5328 183.872 58.252 190.49 58.252 197.523C58.316 212.039 46.48 223.837 31.9569 223.837ZM46.416 204.142C45.6162 203.758 41.7136 201.84 41.0099 201.553C40.2741 201.296 39.7624 201.169 39.2186 201.936C38.6746 202.735 37.1711 204.526 36.7234 205.037C36.2755 205.58 35.7957 205.644 34.9959 205.229C34.1962 204.846 31.6371 203.982 28.6301 201.296C26.263 199.187 24.6955 196.596 24.2157 195.798C23.7678 194.998 24.1517 194.583 24.5676 194.167C24.9194 193.816 25.3674 193.239 25.751 192.792C26.1349 192.344 26.295 191.993 26.5508 191.481C26.8068 190.938 26.6787 190.49 26.487 190.106C26.295 189.723 24.6955 185.822 24.0558 184.223C23.4159 182.689 22.7443 182.881 22.2643 182.849C21.7846 182.849 21.2726 182.849 20.7288 182.849C20.185 182.849 19.3534 183.04 18.6176 183.84C17.9138 184.639 15.8665 186.557 15.8665 190.458C15.8665 194.359 18.7135 198.131 19.0974 198.643C19.4813 199.187 24.6955 207.179 32.6288 210.601C34.5162 211.432 35.9876 211.912 37.1393 212.263C39.0266 212.87 40.7539 212.774 42.1295 212.583C43.665 212.359 46.8319 210.664 47.4716 208.81C48.1434 206.955 48.1434 205.389 47.9195 205.037C47.6955 204.686 47.2158 204.526 46.416 204.142Z" fill="#09A69C"/>
<path d="M1.92969 136.888H596.072" stroke="#37B7AE" stroke-width="2"/>
</svg>
