<svg width="292" height="354" viewBox="0 0 292 354" fill="none" xmlns="http://www.w3.org/2000/svg">
<g clip-path="url(#clip0_553_46)">
<path d="M282.654 204.692H51.1203C23.4063 204.692 0.9375 182.205 0.9375 154.455V10.9941H232.472C260.185 10.9941 282.654 33.4822 282.654 61.2315V204.692Z" stroke="#09A69C" stroke-width="2.63158" stroke-miterlimit="10"/>
<path d="M82.7138 31.5508V127.555H71.1031V43.7388H70.5413L47.1328 59.3019V47.4889L71.1031 31.5508H82.7138ZM125.672 128.498C121.316 128.498 117.56 127.535 114.401 125.61C111.262 123.665 108.839 120.954 107.132 117.477C105.445 113.981 104.602 109.915 104.602 105.278C104.602 100.643 105.445 96.5566 107.132 93.0209C108.839 89.4659 111.213 86.6955 114.254 84.7119C117.314 82.7083 120.885 81.7065 124.966 81.7065C127.32 81.7065 129.645 82.0992 131.94 82.8846C134.235 83.6707 136.324 84.9477 138.208 86.7155C140.092 88.464 141.593 90.7815 142.71 93.6694C143.829 96.5566 144.388 100.112 144.388 104.336V107.283H109.546V101.271H137.325C137.325 98.7179 136.815 96.4391 135.795 94.4355C134.794 92.4319 133.362 90.8503 131.499 89.6916C129.654 88.5328 127.476 87.9531 124.966 87.9531C122.2 87.9531 119.806 88.6403 117.785 90.0155C115.784 91.3713 114.244 93.1391 113.165 95.319C112.086 97.4997 111.547 99.8372 111.547 102.332V106.34C111.547 109.757 112.135 112.655 113.312 115.032C114.509 117.389 116.166 119.186 118.286 120.424C120.404 121.642 122.867 122.251 125.672 122.251C127.496 122.251 129.144 121.995 130.615 121.485C132.107 120.954 133.392 120.169 134.471 119.127C135.55 118.067 136.384 116.75 136.972 115.179L143.682 117.065C142.975 119.344 141.789 121.347 140.121 123.076C138.454 124.785 136.393 126.121 133.941 127.083C131.489 128.026 128.732 128.498 125.672 128.498ZM158.521 127.555V119.117L190.17 84.4282C193.884 80.365 196.942 76.8336 199.346 73.834C201.749 70.8023 203.528 67.9585 204.683 65.3021C205.869 62.6145 206.462 59.8019 206.462 56.8643C206.462 53.4891 205.651 50.5672 204.028 48.0983C202.436 45.6295 200.251 43.7232 197.473 42.3793C194.695 41.0356 191.574 40.3637 188.11 40.3637C184.427 40.3637 181.212 41.1293 178.465 42.6606C175.75 44.1607 173.643 46.2701 172.145 48.989C170.678 51.7078 169.945 54.8955 169.945 58.5518H158.896C158.896 52.9266 160.191 47.9889 162.782 43.7388C165.372 39.4886 168.899 36.176 173.363 33.8009C177.857 31.4258 182.898 30.2383 188.484 30.2383C194.102 30.2383 199.081 31.4258 203.419 33.8009C207.757 36.176 211.159 39.3792 213.625 43.4107C216.091 47.442 217.324 51.9266 217.324 56.8643C217.324 60.3956 216.684 63.8489 215.404 67.224C214.156 70.568 211.971 74.3026 208.85 78.4274C205.76 82.5213 201.468 87.5217 195.975 93.4279L174.439 116.492V117.242H219.009V127.555H158.521Z" fill="#085E9F"/>
<path d="M86.3748 166.439H89.3763L91.892 169.754L92.5547 170.638L96.3063 175.632H93.3047L90.8328 172.318L90.2151 171.478L86.3748 166.439ZM97.2331 162.196C97.2331 164.583 96.803 166.646 95.942 168.384C95.0818 170.123 93.9009 171.463 92.4001 172.406C90.8993 173.349 89.1845 173.821 87.2572 173.821C85.3299 173.821 83.6158 173.349 82.115 172.406C80.6142 171.463 79.4333 170.123 78.5723 168.384C77.7114 166.646 77.2812 164.583 77.2812 162.196C77.2812 159.81 77.7114 157.747 78.5723 156.008C79.4333 154.271 80.6142 152.93 82.115 151.987C83.6158 151.044 85.3299 150.572 87.2572 150.572C89.1845 150.572 90.8993 151.044 92.4001 151.987C93.9009 152.93 95.0818 154.271 95.942 156.008C96.803 157.747 97.2331 159.81 97.2331 162.196ZM94.5851 162.196C94.5851 160.237 94.2573 158.583 93.6025 157.235C92.9555 155.887 92.0759 154.867 90.9652 154.175C89.8616 153.482 88.6256 153.136 87.2572 153.136C85.8888 153.136 84.6492 153.482 83.5385 154.175C82.4349 154.867 81.556 155.887 80.9012 157.235C80.2535 158.583 79.93 160.237 79.93 162.196C79.93 164.156 80.2535 165.81 80.9012 167.158C81.556 168.506 82.4349 169.526 83.5385 170.219C84.6492 170.911 85.8888 171.257 87.2572 171.257C88.6256 171.257 89.8616 170.911 90.9652 170.219C92.0759 169.526 92.9555 168.506 93.6025 167.158C94.2573 165.81 94.5851 164.156 94.5851 162.196ZM116.667 150.882H119.404V165.865C119.404 167.412 119.039 168.793 118.311 170.009C117.59 171.217 116.571 172.171 115.254 172.871C113.937 173.563 112.392 173.909 110.619 173.909C108.847 173.909 107.301 173.563 105.985 172.871C104.668 172.171 103.645 171.217 102.916 170.009C102.196 168.793 101.835 167.412 101.835 165.865V150.882H104.572V165.644C104.572 166.749 104.815 167.732 105.3 168.594C105.786 169.449 106.478 170.123 107.375 170.616C108.28 171.102 109.361 171.346 110.619 171.346C111.878 171.346 112.959 171.102 113.864 170.616C114.769 170.123 115.46 169.449 115.938 168.594C116.424 167.732 116.667 166.749 116.667 165.644V150.882ZM125.796 173.511H122.927L131.225 150.882H134.05L142.349 173.511H139.48L132.726 154.462H132.549L125.796 173.511ZM126.855 164.671H138.42V167.103H126.855V164.671ZM145.87 173.511V150.882H153.506C155.272 150.882 156.721 151.184 157.854 151.788C158.987 152.385 159.826 153.206 160.37 154.252C160.914 155.298 161.187 156.488 161.187 157.821C161.187 159.154 160.914 160.337 160.37 161.368C159.826 162.399 158.99 163.209 157.865 163.799C156.74 164.38 155.301 164.671 153.55 164.671H147.371V162.196H153.462C154.668 162.196 155.64 162.02 156.375 161.666C157.118 161.313 157.655 160.812 157.986 160.163C158.325 159.508 158.494 158.727 158.494 157.821C158.494 156.915 158.325 156.123 157.986 155.445C157.648 154.767 157.107 154.245 156.364 153.876C155.621 153.5 154.639 153.313 153.417 153.313H148.607V173.511H145.87ZM156.508 163.346L162.069 173.511H158.891L153.417 163.346H156.508ZM164.511 153.313V150.882H181.462V153.313H174.355V173.511H171.618V153.313H164.511ZM203.814 162.196C203.814 164.583 203.384 166.646 202.523 168.384C201.662 170.123 200.481 171.463 198.98 172.406C197.479 173.349 195.765 173.821 193.838 173.821C191.911 173.821 190.196 173.349 188.695 172.406C187.194 171.463 186.014 170.123 185.153 168.384C184.292 166.646 183.862 164.583 183.862 162.196C183.862 159.81 184.292 157.747 185.153 156.008C186.014 154.271 187.194 152.93 188.695 151.987C190.196 151.044 191.911 150.572 193.838 150.572C195.765 150.572 197.479 151.044 198.98 151.987C200.481 152.93 201.662 154.271 202.523 156.008C203.384 157.747 203.814 159.81 203.814 162.196ZM201.165 162.196C201.165 160.237 200.838 158.583 200.183 157.235C199.535 155.887 198.657 154.867 197.546 154.175C196.442 153.482 195.206 153.136 193.838 153.136C192.47 153.136 191.23 153.482 190.119 154.175C189.016 154.867 188.136 155.887 187.481 157.235C186.834 158.583 186.51 160.237 186.51 162.196C186.51 164.156 186.834 165.81 187.481 167.158C188.136 168.506 189.016 169.526 190.119 170.219C191.23 170.911 192.47 171.257 193.838 171.257C195.206 171.257 196.442 170.911 197.546 170.219C198.657 169.526 199.535 168.506 200.183 167.158C200.838 165.81 201.165 164.156 201.165 162.196ZM220.776 156.539C220.643 155.419 220.106 154.55 219.164 153.932C218.223 153.313 217.068 153.003 215.699 153.003C214.699 153.003 213.823 153.166 213.073 153.49C212.33 153.813 211.749 154.259 211.329 154.827C210.917 155.394 210.711 156.038 210.711 156.76C210.711 157.364 210.855 157.884 211.142 158.318C211.436 158.745 211.811 159.103 212.267 159.39C212.723 159.669 213.202 159.902 213.702 160.086C214.202 160.263 214.662 160.406 215.081 160.517L217.376 161.136C217.965 161.29 218.62 161.504 219.341 161.776C220.069 162.049 220.764 162.421 221.426 162.893C222.096 163.356 222.648 163.953 223.082 164.683C223.516 165.412 223.733 166.307 223.733 167.368C223.733 168.59 223.413 169.695 222.773 170.682C222.14 171.67 221.213 172.454 219.992 173.036C218.778 173.618 217.303 173.909 215.567 173.909C213.948 173.909 212.547 173.647 211.362 173.124C210.185 172.601 209.258 171.872 208.581 170.937C207.912 170.001 207.533 168.914 207.445 167.677H210.269C210.343 168.532 210.63 169.239 211.13 169.799C211.638 170.351 212.278 170.764 213.051 171.036C213.831 171.301 214.669 171.434 215.567 171.434C216.611 171.434 217.549 171.265 218.381 170.926C219.212 170.58 219.87 170.1 220.356 169.489C220.841 168.871 221.084 168.148 221.084 167.323C221.084 166.572 220.874 165.961 220.455 165.489C220.036 165.017 219.485 164.635 218.8 164.34C218.116 164.046 217.376 163.788 216.582 163.566L213.801 162.771C212.035 162.263 210.637 161.537 209.607 160.595C208.577 159.652 208.062 158.418 208.062 156.893C208.062 155.626 208.404 154.521 209.088 153.578C209.781 152.627 210.707 151.891 211.87 151.368C213.04 150.837 214.345 150.572 215.787 150.572C217.244 150.572 218.539 150.834 219.672 151.357C220.805 151.872 221.702 152.579 222.364 153.478C223.034 154.377 223.387 155.397 223.424 156.539H220.776Z" fill="#085E9F"/>
<path d="M83.6766 254.218L87.7431 265.763H87.9035L91.97 254.218H93.7091L88.6793 267.933H86.9673L81.9375 254.218H83.6766ZM95.2271 267.933H93.488L98.5178 254.218H100.23L105.26 267.933H103.52L99.4274 256.388H99.3201L95.2271 267.933ZM95.8691 262.575H102.878V264.048H95.8691V262.575ZM107.393 267.933V254.218H112.021C113.091 254.218 113.969 254.401 114.657 254.767C115.343 255.129 115.851 255.626 116.181 256.26C116.511 256.895 116.676 257.615 116.676 258.423C116.676 259.231 116.511 259.948 116.181 260.573C115.851 261.198 115.345 261.689 114.663 262.046C113.981 262.399 113.109 262.575 112.048 262.575H108.303V261.075H111.994C112.726 261.075 113.314 260.968 113.76 260.754C114.211 260.54 114.536 260.236 114.737 259.843C114.941 259.446 115.044 258.973 115.044 258.423C115.044 257.874 114.941 257.394 114.737 256.983C114.531 256.573 114.204 256.256 113.753 256.032C113.303 255.805 112.708 255.691 111.968 255.691H109.051V267.933H107.393ZM113.84 261.772L117.211 267.933H115.285L111.968 261.772H113.84ZM120.002 267.933H118.263L123.292 254.218H125.005L130.034 267.933H128.295L124.202 256.388H124.095L120.002 267.933ZM120.644 262.575H127.653V264.048H120.644V262.575ZM143.029 254.218V267.933H141.424L133.96 257.165H133.826V267.933H132.167V254.218H133.773L141.264 265.013H141.397V254.218H143.029ZM150.575 267.933H146.348V254.218H150.762C152.091 254.218 153.228 254.492 154.173 255.041C155.119 255.586 155.843 256.37 156.347 257.392C156.851 258.41 157.102 259.629 157.102 261.049C157.102 262.477 156.848 263.707 156.34 264.738C155.832 265.765 155.091 266.556 154.119 267.109C153.148 267.658 151.966 267.933 150.575 267.933ZM148.007 266.46H150.468C151.6 266.46 152.539 266.24 153.284 265.803C154.029 265.365 154.583 264.743 154.949 263.935C155.315 263.127 155.497 262.164 155.497 261.049C155.497 259.942 155.317 258.988 154.955 258.189C154.595 257.385 154.055 256.769 153.337 256.341C152.619 255.908 151.726 255.691 150.656 255.691H148.007V266.46ZM159.803 267.933H158.064L163.093 254.218H164.805L169.835 267.933H168.096L164.003 256.388H163.896L159.803 267.933ZM160.445 262.575H167.454V264.048H160.445V262.575ZM186.629 258.504C186.482 258.053 186.288 257.649 186.047 257.292C185.811 256.93 185.528 256.622 185.198 256.368C184.873 256.113 184.503 255.919 184.087 255.785C183.673 255.651 183.218 255.584 182.723 255.584C181.912 255.584 181.174 255.794 180.51 256.214C179.845 256.633 179.317 257.251 178.924 258.068C178.532 258.885 178.336 259.888 178.336 261.075C178.336 262.263 178.534 263.265 178.931 264.082C179.328 264.899 179.865 265.517 180.543 265.937C181.22 266.356 181.983 266.566 182.83 266.566C183.615 266.566 184.306 266.399 184.903 266.064C185.505 265.725 185.974 265.247 186.308 264.631C186.647 264.01 186.816 263.281 186.816 262.442L187.324 262.549H183.205V261.075H188.422V262.549C188.422 263.678 188.181 264.66 187.699 265.495C187.222 266.33 186.562 266.977 185.72 267.437C184.881 267.892 183.919 268.12 182.83 268.12C181.618 268.12 180.552 267.834 179.633 267.263C178.719 266.692 178.006 265.879 177.493 264.825C176.985 263.772 176.731 262.522 176.731 261.075C176.731 259.99 176.875 259.015 177.165 258.149C177.459 257.278 177.875 256.537 178.409 255.926C178.944 255.314 179.578 254.845 180.309 254.519C181.04 254.194 181.845 254.03 182.723 254.03C183.445 254.03 184.119 254.14 184.743 254.358C185.372 254.573 185.931 254.879 186.422 255.276C186.917 255.669 187.329 256.14 187.659 256.689C187.989 257.233 188.216 257.838 188.341 258.504H186.629ZM202.82 261.075C202.82 262.522 202.559 263.772 202.037 264.825C201.515 265.879 200.799 266.692 199.89 267.263C198.981 267.834 197.942 268.12 196.774 268.12C195.605 268.12 194.566 267.834 193.657 267.263C192.747 266.692 192.032 265.879 191.51 264.825C190.988 263.772 190.728 262.522 190.728 261.075C190.728 259.629 190.988 258.379 191.51 257.325C192.032 256.272 192.747 255.459 193.657 254.887C194.566 254.316 195.605 254.03 196.774 254.03C197.942 254.03 198.981 254.316 199.89 254.887C200.799 255.459 201.515 256.272 202.037 257.325C202.559 258.379 202.82 259.629 202.82 261.075ZM201.214 261.075C201.214 259.888 201.016 258.885 200.619 258.068C200.227 257.251 199.694 256.633 199.021 256.214C198.352 255.794 197.602 255.584 196.774 255.584C195.944 255.584 195.193 255.794 194.519 256.214C193.851 256.633 193.318 257.251 192.921 258.068C192.529 258.885 192.332 259.888 192.332 261.075C192.332 262.263 192.529 263.265 192.921 264.082C193.318 264.899 193.851 265.517 194.519 265.937C195.193 266.356 195.944 266.566 196.774 266.566C197.602 266.566 198.352 266.356 199.021 265.937C199.694 265.517 200.227 264.899 200.619 264.082C201.016 263.265 201.214 262.263 201.214 261.075ZM214.597 254.218H216.256V263.299C216.256 264.236 216.036 265.073 215.594 265.81C215.157 266.542 214.539 267.12 213.741 267.545C212.943 267.964 212.007 268.174 210.932 268.174C209.858 268.174 208.921 267.964 208.123 267.545C207.325 267.12 206.705 266.542 206.264 265.81C205.827 265.073 205.609 264.236 205.609 263.299V254.218H207.267V263.165C207.267 263.834 207.414 264.43 207.709 264.953C208.003 265.471 208.422 265.879 208.966 266.178C209.514 266.473 210.17 266.62 210.932 266.62C211.695 266.62 212.35 266.473 212.899 266.178C213.447 265.879 213.866 265.471 214.156 264.953C214.45 264.43 214.597 263.834 214.597 263.165V254.218ZM219.568 267.933V254.218H224.197C225.267 254.218 226.145 254.401 226.832 254.767C227.518 255.129 228.026 255.626 228.357 256.26C228.687 256.895 228.851 257.615 228.851 258.423C228.851 259.231 228.687 259.948 228.357 260.573C228.026 261.198 227.52 261.689 226.838 262.046C226.156 262.399 225.284 262.575 224.223 262.575H220.478V261.075H224.169C224.901 261.075 225.49 260.968 225.936 260.754C226.386 260.54 226.712 260.236 226.912 259.843C227.117 259.446 227.22 258.973 227.22 258.423C227.22 257.874 227.117 257.394 226.912 256.983C226.707 256.573 226.379 256.256 225.929 256.032C225.478 255.805 224.883 255.691 224.143 255.691H221.227V267.933H219.568ZM226.016 261.772L229.387 267.933H227.46L224.143 261.772H226.016ZM231.615 254.218H233.595L238.25 265.602H238.411L243.066 254.218H245.045V267.933H243.494V257.513H243.36L239.079 267.933H237.581L233.301 257.513H233.167V267.933H231.615V254.218ZM248.371 267.933V254.218H256.637V255.691H250.029V260.326H256.209V261.798H250.029V266.46H256.745V267.933H248.371ZM258.878 255.691V254.218H269.151V255.691H264.844V267.933H263.185V255.691H258.878Z" fill="#085E9F"/>
<path d="M83.1094 309.042V295.327H84.7683V307.569H91.1351V309.042H83.1094ZM95.13 309.042H93.3909L98.4201 295.327H100.133L105.162 309.042H103.423L99.3297 297.497H99.2231L95.13 309.042ZM95.772 303.685H102.781V305.158H95.772V303.685ZM106.841 309.042V307.837L114.225 296.801H106.761V295.327H116.204V296.533L108.82 307.569H116.284V309.042H106.841ZM119.067 309.042V295.327H127.333V296.801H120.725V301.435H126.905V302.908H120.725V307.569H127.44V309.042H119.067ZM130.322 309.042V295.327H134.951C136.021 295.327 136.9 295.51 137.586 295.876C138.273 296.238 138.781 296.736 139.111 297.37C139.441 298.004 139.606 298.725 139.606 299.533C139.606 300.341 139.441 301.057 139.111 301.682C138.781 302.308 138.275 302.799 137.593 303.156C136.91 303.509 136.039 303.685 134.978 303.685H131.232V302.185H134.924C135.656 302.185 136.244 302.078 136.69 301.863C137.14 301.649 137.466 301.345 137.666 300.953C137.872 300.555 137.974 300.082 137.974 299.533C137.974 298.983 137.872 298.504 137.666 298.093C137.461 297.682 137.134 297.365 136.684 297.142C136.233 296.915 135.638 296.801 134.897 296.801H131.981V309.042H130.322ZM136.77 302.881L140.141 309.042H138.215L134.897 302.881H136.77ZM158.689 299.613H157.03C156.932 299.135 156.761 298.716 156.515 298.354C156.275 297.992 155.981 297.689 155.633 297.444C155.289 297.193 154.908 297.006 154.489 296.881C154.07 296.756 153.632 296.693 153.178 296.693C152.348 296.693 151.597 296.903 150.924 297.323C150.255 297.742 149.723 298.361 149.325 299.178C148.933 299.995 148.737 300.997 148.737 302.185C148.737 303.373 148.933 304.374 149.325 305.191C149.723 306.008 150.255 306.627 150.924 307.047C151.597 307.466 152.348 307.676 153.178 307.676C153.632 307.676 154.07 307.613 154.489 307.489C154.908 307.363 155.289 307.179 155.633 306.933C155.981 306.683 156.275 306.377 156.515 306.015C156.761 305.649 156.932 305.229 157.03 304.756H158.689C158.564 305.457 158.337 306.084 158.007 306.638C157.677 307.191 157.267 307.663 156.776 308.051C156.285 308.435 155.735 308.727 155.124 308.928C154.518 309.129 153.869 309.229 153.178 309.229C152.01 309.229 150.971 308.944 150.061 308.372C149.151 307.801 148.436 306.989 147.914 305.935C147.392 304.881 147.132 303.631 147.132 302.185C147.132 300.738 147.392 299.488 147.914 298.435C148.436 297.381 149.151 296.569 150.061 295.997C150.971 295.426 152.01 295.14 153.178 295.14C153.869 295.14 154.518 295.24 155.124 295.441C155.735 295.642 156.285 295.937 156.776 296.325C157.267 296.709 157.677 297.178 158.007 297.732C158.337 298.281 158.564 298.908 158.689 299.613ZM172.927 302.185C172.927 303.631 172.665 304.881 172.144 305.935C171.622 306.989 170.906 307.801 169.997 308.372C169.088 308.944 168.048 309.229 166.88 309.229C165.712 309.229 164.673 308.944 163.764 308.372C162.854 307.801 162.138 306.989 161.617 305.935C161.095 304.881 160.834 303.631 160.834 302.185C160.834 300.738 161.095 299.488 161.617 298.435C162.138 297.381 162.854 296.569 163.764 295.997C164.673 295.426 165.712 295.14 166.88 295.14C168.048 295.14 169.088 295.426 169.997 295.997C170.906 296.569 171.622 297.381 172.144 298.435C172.665 299.488 172.927 300.738 172.927 302.185ZM171.321 302.185C171.321 300.997 171.123 299.995 170.726 299.178C170.334 298.361 169.8 297.742 169.128 297.323C168.459 296.903 167.71 296.693 166.88 296.693C166.051 296.693 165.3 296.903 164.626 297.323C163.958 297.742 163.424 298.361 163.028 299.178C162.636 299.995 162.44 300.997 162.44 302.185C162.44 303.373 162.636 304.374 163.028 305.191C163.424 306.008 163.958 306.627 164.626 307.047C165.3 307.466 166.051 307.676 166.88 307.676C167.71 307.676 168.459 307.466 169.128 307.047C169.8 306.627 170.334 306.008 170.726 305.191C171.123 304.374 171.321 303.373 171.321 302.185ZM175.716 295.327H177.695L182.35 306.712H182.51L187.165 295.327H189.145V309.042H187.594V298.622H187.46L183.18 309.042H181.681L177.401 298.622H177.267V309.042H175.716V295.327ZM192.471 309.042V295.327H197.099C198.174 295.327 199.052 295.522 199.734 295.91C200.421 296.294 200.929 296.814 201.259 297.47C201.589 298.126 201.754 298.859 201.754 299.667C201.754 300.475 201.589 301.209 201.259 301.87C200.934 302.531 200.43 303.057 199.748 303.451C199.066 303.839 198.192 304.033 197.126 304.033H193.808V302.56H197.072C197.808 302.56 198.399 302.432 198.844 302.178C199.29 301.924 199.614 301.58 199.814 301.147C200.02 300.709 200.122 300.216 200.122 299.667C200.122 299.117 200.02 298.627 199.814 298.194C199.614 297.76 199.288 297.421 198.838 297.176C198.388 296.925 197.79 296.801 197.045 296.801H194.129V309.042H192.471ZM204.426 309.042V295.327H206.084V307.569H212.452V309.042H204.426ZM215.02 309.042V295.327H223.287V296.801H216.679V301.435H222.859V302.908H216.679V307.569H223.393V309.042H215.02ZM225.527 296.801V295.327H235.8V296.801H231.493V309.042H229.834V296.801H225.527ZM249.347 302.185C249.347 303.631 249.086 304.881 248.565 305.935C248.043 306.989 247.327 307.801 246.418 308.372C245.508 308.944 244.469 309.229 243.301 309.229C242.133 309.229 241.094 308.944 240.184 308.372C239.274 307.801 238.559 306.989 238.038 305.935C237.516 304.881 237.255 303.631 237.255 302.185C237.255 300.738 237.516 299.488 238.038 298.435C238.559 297.381 239.274 296.569 240.184 295.997C241.094 295.426 242.133 295.14 243.301 295.14C244.469 295.14 245.508 295.426 246.418 295.997C247.327 296.569 248.043 297.381 248.565 298.435C249.086 299.488 249.347 300.738 249.347 302.185ZM247.742 302.185C247.742 300.997 247.543 299.995 247.147 299.178C246.754 298.361 246.221 297.742 245.548 297.323C244.88 296.903 244.13 296.693 243.301 296.693C242.471 296.693 241.72 296.903 241.047 297.323C240.378 297.742 239.845 298.361 239.448 299.178C239.056 299.995 238.86 300.997 238.86 302.185C238.86 303.373 239.056 304.374 239.448 305.191C239.845 306.008 240.378 306.627 241.047 307.047C241.72 307.466 242.471 307.676 243.301 307.676C244.13 307.676 244.88 307.466 245.548 307.047C246.221 306.627 246.754 306.008 247.147 305.191C247.543 304.374 247.742 303.373 247.742 302.185Z" fill="#085E9F"/>
<path d="M83.6766 333.798L87.7431 345.343H87.9035L91.97 333.798H93.7091L88.6793 347.512H86.9673L81.9375 333.798H83.6766ZM95.2271 347.512H93.488L98.5178 333.798H100.23L105.26 347.512H103.52L99.4274 335.967H99.3201L95.2271 347.512ZM95.8691 342.155H102.878V343.628H95.8691V342.155ZM116.112 338.083C115.966 337.633 115.772 337.228 115.53 336.872C115.294 336.51 115.012 336.202 114.682 335.947C114.356 335.693 113.986 335.499 113.571 335.365C113.156 335.231 112.701 335.164 112.207 335.164C111.395 335.164 110.657 335.374 109.993 335.793C109.328 336.213 108.8 336.831 108.408 337.648C108.016 338.465 107.82 339.468 107.82 340.655C107.82 341.843 108.018 342.845 108.414 343.662C108.812 344.479 109.348 345.097 110.026 345.517C110.704 345.937 111.467 346.147 112.313 346.147C113.098 346.147 113.79 345.979 114.387 345.644C114.989 345.305 115.457 344.827 115.792 344.211C116.13 343.59 116.3 342.861 116.3 342.021L116.808 342.129H112.688V340.655H117.905V342.129C117.905 343.258 117.665 344.24 117.183 345.075C116.706 345.91 116.046 346.557 115.203 347.017C114.365 347.472 113.402 347.7 112.313 347.7C111.101 347.7 110.035 347.414 109.116 346.843C108.202 346.271 107.49 345.459 106.976 344.405C106.468 343.352 106.214 342.101 106.214 340.655C106.214 339.57 106.359 338.595 106.649 337.729C106.943 336.858 107.358 336.117 107.893 335.506C108.428 334.894 109.061 334.425 109.792 334.099C110.523 333.773 111.329 333.61 112.207 333.61C112.929 333.61 113.602 333.719 114.226 333.939C114.855 334.153 115.414 334.459 115.905 334.856C116.4 335.249 116.813 335.72 117.143 336.269C117.473 336.814 117.7 337.418 117.825 338.083H116.112ZM120.884 347.512H119.145L124.175 333.798H125.887L130.917 347.512H129.178L125.085 335.967H124.977L120.884 347.512ZM121.526 342.155H128.536V343.628H121.526V342.155ZM142.574 347.512H138.347V333.798H142.762C144.091 333.798 145.227 334.073 146.172 334.621C147.118 335.166 147.842 335.949 148.346 336.972C148.85 337.99 149.102 339.208 149.102 340.629C149.102 342.057 148.848 343.287 148.34 344.318C147.831 345.345 147.091 346.135 146.119 346.689C145.147 347.238 143.965 347.512 142.574 347.512ZM140.006 346.039H142.467C143.6 346.039 144.539 345.82 145.283 345.383C146.028 344.946 146.583 344.323 146.948 343.514C147.314 342.707 147.497 341.744 147.497 340.629C147.497 339.521 147.316 338.568 146.955 337.769C146.594 336.965 146.054 336.349 145.337 335.921C144.619 335.488 143.725 335.271 142.654 335.271H140.006V346.039ZM151.884 347.512V333.798H160.151V335.271H153.543V339.905H159.723V341.378H153.543V346.039H160.258V347.512H151.884ZM177.801 338.083C177.653 337.633 177.459 337.228 177.219 336.872C176.983 336.51 176.699 336.202 176.369 335.947C176.044 335.693 175.674 335.499 175.259 335.365C174.844 335.231 174.39 335.164 173.895 335.164C173.084 335.164 172.345 335.374 171.681 335.793C171.017 336.213 170.489 336.831 170.096 337.648C169.704 338.465 169.507 339.468 169.507 340.655C169.507 341.843 169.706 342.845 170.103 343.662C170.499 344.479 171.037 345.097 171.715 345.517C172.392 345.937 173.155 346.147 174.002 346.147C174.786 346.147 175.478 345.979 176.075 345.644C176.677 345.305 177.145 344.827 177.479 344.211C177.819 343.59 177.988 342.861 177.988 342.021L178.496 342.129H174.376V340.655H179.593V342.129C179.593 343.258 179.352 344.24 178.871 345.075C178.394 345.91 177.734 346.557 176.891 347.017C176.053 347.472 175.09 347.7 174.002 347.7C172.789 347.7 171.723 347.414 170.805 346.843C169.891 346.271 169.178 345.459 168.665 344.405C168.156 343.352 167.902 342.101 167.902 340.655C167.902 339.57 168.047 338.595 168.337 337.729C168.631 336.858 169.046 336.117 169.581 335.506C170.116 334.894 170.749 334.425 171.481 334.099C172.212 333.773 173.016 333.61 173.895 333.61C174.617 333.61 175.29 333.719 175.915 333.939C176.543 334.153 177.103 334.459 177.593 334.856C178.089 335.249 178.501 335.72 178.831 336.269C179.161 336.814 179.388 337.418 179.513 338.083H177.801ZM182.573 347.512H180.834L185.863 333.798H187.576L192.605 347.512H190.866L186.773 335.967H186.666L182.573 347.512ZM183.215 342.155H190.224V343.628H183.215V342.155ZM194.738 347.512V333.798H199.367C200.437 333.798 201.315 333.981 202.002 334.347C202.689 334.708 203.197 335.206 203.527 335.84C203.857 336.474 204.021 337.196 204.021 338.003C204.021 338.811 203.857 339.528 203.527 340.153C203.197 340.778 202.691 341.269 202.009 341.626C201.326 341.979 200.454 342.155 199.394 342.155H195.648V340.655H199.34C200.072 340.655 200.66 340.548 201.106 340.333C201.556 340.119 201.882 339.816 202.082 339.423C202.287 339.026 202.39 338.553 202.39 338.003C202.39 337.454 202.287 336.974 202.082 336.563C201.877 336.153 201.549 335.836 201.099 335.613C200.648 335.385 200.054 335.271 199.313 335.271H196.397V347.512H194.738ZM201.186 341.352L204.557 347.512H202.631L199.313 341.352H201.186ZM207.347 347.512H205.609L210.638 333.798H212.35L217.38 347.512H215.641L211.548 335.967H211.44L207.347 347.512ZM207.989 342.155H214.999V343.628H207.989V342.155ZM228.233 338.083C228.086 337.633 227.892 337.228 227.651 336.872C227.414 336.51 227.132 336.202 226.802 335.947C226.476 335.693 226.106 335.499 225.691 335.365C225.277 335.231 224.822 335.164 224.327 335.164C223.515 335.164 222.777 335.374 222.113 335.793C221.449 336.213 220.92 336.831 220.528 337.648C220.136 338.465 219.94 339.468 219.94 340.655C219.94 341.843 220.138 342.845 220.534 343.662C220.932 344.479 221.469 345.097 222.147 345.517C222.825 345.937 223.587 346.147 224.434 346.147C225.219 346.147 225.91 345.979 226.508 345.644C227.109 345.305 227.578 344.827 227.912 344.211C228.251 343.59 228.42 342.861 228.42 342.021L228.929 342.129H224.809V340.655H230.025V342.129C230.025 343.258 229.785 344.24 229.303 345.075C228.826 345.91 228.166 346.557 227.323 347.017C226.485 347.472 225.522 347.7 224.434 347.7C223.221 347.7 222.155 347.414 221.237 346.843C220.323 346.271 219.61 345.459 219.097 344.405C218.588 343.352 218.334 342.101 218.334 340.655C218.334 339.57 218.479 338.595 218.769 337.729C219.063 336.858 219.478 336.117 220.013 335.506C220.548 334.894 221.181 334.425 221.913 334.099C222.644 333.773 223.449 333.61 224.327 333.61C225.049 333.61 225.722 333.719 226.347 333.939C226.976 334.153 227.535 334.459 228.026 334.856C228.52 335.249 228.933 335.72 229.263 336.269C229.593 336.814 229.82 337.418 229.945 338.083H228.233ZM232.866 347.512V333.798H241.133V335.271H234.525V339.905H240.705V341.378H234.525V346.039H241.239V347.512H232.866ZM244.122 333.798H246.102L250.757 345.182H250.917L255.572 333.798H257.552V347.512H256V337.092H255.866L251.586 347.512H250.088L245.807 337.092H245.674V347.512H244.122V333.798Z" fill="#085E9F"/>
<path fill-rule="evenodd" clip-rule="evenodd" d="M61.7541 344.939C61.9896 345.335 63.1479 346.306 63.1479 348.145V349.606C63.1479 350.408 62.6111 351.077 61.8766 351.294V352.548C61.8766 353.076 61.4528 353.501 60.9349 353.501H59.1833C58.6654 353.501 58.2416 353.076 58.2416 352.548V351.37H51.678V352.548C51.678 353.076 51.2637 353.501 50.7363 353.501H48.9942C48.4668 353.501 48.0431 353.076 48.0431 352.548V351.294C47.318 351.077 46.7812 350.408 46.7812 349.606V348.145C46.7812 346.315 47.9301 345.344 48.175 344.939C47.6005 344.826 47.1674 344.326 47.1674 343.723V343.562C47.1674 343.355 47.3368 343.185 47.5534 343.185C47.7606 343.185 47.9301 343.355 47.9301 343.562V343.723C47.9301 343.987 48.1467 344.213 48.4104 344.213H48.6269L49.305 341.516C49.6063 340.3 50.6987 339.451 51.9417 339.451H57.9779C59.2304 339.451 60.3134 340.3 60.6241 341.516L61.3022 344.213H61.5187C61.7824 344.213 61.999 343.987 61.999 343.723V343.562C61.999 343.355 62.1685 343.185 62.3757 343.185C62.5828 343.185 62.7524 343.355 62.7524 343.562V343.723C62.7524 344.326 62.3286 344.826 61.7541 344.939ZM49.4085 344.204H60.5206L59.8896 341.705C59.673 340.828 58.882 340.215 57.9779 340.215H51.9417C51.0471 340.215 50.256 340.828 50.0395 341.705L49.4085 344.204ZM50.9247 351.36C50.8588 351.36 48.8529 351.36 48.7965 351.36V352.548C48.7965 352.652 48.8812 352.728 48.9848 352.728H50.7363C50.8399 352.728 50.9247 352.652 50.9247 352.548V351.36ZM60.8219 344.948H49.1072C48.6081 345.731 47.5346 346.514 47.5346 348.136V349.597C47.5346 350.144 47.9866 350.596 48.5328 350.596H49.4933C49.531 349.908 50.096 349.352 50.7928 349.352H59.1268C59.8331 349.352 60.3981 349.908 60.4358 350.596H61.3869C61.9425 350.596 62.3945 350.144 62.3945 349.597V348.136C62.3945 346.504 61.3304 345.75 60.8219 344.948ZM61.1232 351.36C61.0573 351.36 59.0515 351.36 58.995 351.36V352.538C58.995 352.642 59.0797 352.728 59.1833 352.728H60.9349C61.0384 352.728 61.1232 352.642 61.1232 352.538V351.36ZM59.6824 350.606C59.6448 350.332 59.4093 350.116 59.1268 350.116H50.7928C50.5103 350.116 50.2749 350.332 50.2467 350.606C53.7309 350.606 57.8461 350.606 59.6824 350.606Z" fill="#085E9F"/>
<path d="M57.2155 347.409H52.7048C52.4976 347.409 52.3281 347.579 52.3281 347.786C52.3281 347.994 52.4976 348.163 52.7048 348.163H57.2155C57.4321 348.163 57.6016 347.994 57.6016 347.786C57.6016 347.579 57.4321 347.409 57.2155 347.409Z" fill="#085E9F"/>
<path fill-rule="evenodd" clip-rule="evenodd" d="M61.0767 346.334C61.3028 346.589 61.331 346.985 61.1521 347.456C61.0297 347.787 60.8131 348.135 60.5965 348.324C60.1162 348.748 59.3817 348.711 58.958 348.23C58.5248 347.749 58.5625 347.014 59.0427 346.579C59.5041 346.174 60.6059 345.806 61.0767 346.334ZM60.5117 346.834C60.3705 346.769 59.8055 346.919 59.5512 347.145C59.3817 347.296 59.3723 347.56 59.523 347.72C59.6736 347.89 59.9279 347.909 60.0974 347.758C60.3328 347.541 60.5588 346.994 60.5117 346.834Z" fill="#085E9F"/>
<path fill-rule="evenodd" clip-rule="evenodd" d="M50.9701 348.229C50.5464 348.71 49.8119 348.748 49.3316 348.324C48.8702 347.909 48.3899 346.853 48.8514 346.335C49.3222 345.807 50.4145 346.165 50.8854 346.58C51.3562 347.013 51.3939 347.749 50.9701 348.229ZM50.3769 347.145C50.1321 346.928 49.567 346.768 49.4164 346.834C49.3693 346.995 49.5953 347.542 49.8307 347.758C50.0002 347.909 50.2545 347.891 50.4052 347.721C50.5558 347.56 50.5464 347.296 50.3769 347.145Z" fill="#085E9F"/>
<path fill-rule="evenodd" clip-rule="evenodd" d="M67.9657 337.405C67.9186 337.565 67.7679 337.679 67.5984 337.679H65.8656V353.123C65.8656 353.331 65.6962 353.5 65.489 353.5C65.2724 353.5 65.1029 353.331 65.1029 353.123V337.679H44.8283V353.123C44.8283 353.331 44.6588 353.5 44.4516 353.5C44.2444 353.5 44.0749 353.331 44.0749 353.123V337.679H42.3422C42.1727 337.679 42.022 337.565 41.975 337.405C41.9279 337.244 42.0032 337.065 42.1444 336.981L54.7726 329.334C54.895 329.259 55.0456 329.259 55.1681 329.334L67.7961 336.981C67.9374 337.065 68.0128 337.244 67.9657 337.405ZM66.2424 336.924L54.9703 330.098L43.6983 336.924C53.3977 336.924 56.5147 336.924 66.2424 336.924Z" fill="#085E9F"/>
<path fill-rule="evenodd" clip-rule="evenodd" d="M66.8766 261.21C65.9914 262.793 64.3152 263.632 62.5165 263.548V272.732C62.5165 273.184 61.5654 273.137 61.2735 273.099C60.7273 273.043 60.7461 272.392 61.2264 272.326C61.3865 272.298 61.5654 272.335 61.7349 272.326V265.207H48.2028C48.3158 265.792 47.4212 265.829 47.4212 265.377V263.548C45.6225 263.632 43.9369 262.793 43.0612 261.21C42.8163 260.757 42.5527 260.059 42.5056 259.55C42.4773 259.286 42.4773 258.795 42.5056 258.522C42.6657 256.787 44.097 255.156 45.7638 254.694C47.1198 254.327 48.1369 254.817 49.3422 253.751C49.6813 253.449 49.9167 253.053 50.218 252.724C51.8848 250.903 54.3897 250.187 56.7816 250.837C57.0076 250.903 57.7798 251.148 57.9117 251.309C58.1188 251.545 57.9587 251.922 57.6668 251.941C57.5162 251.95 56.8664 251.639 56.6309 251.563C54.8134 251.045 52.7794 251.46 51.3387 252.676C50.3593 253.506 50.0108 254.486 48.7019 255.005C47.6849 255.402 46.7055 255.128 45.6884 255.505C42.9482 256.504 42.3737 260.182 44.6715 261.983C45.0481 262.284 45.9898 262.765 46.4701 262.765H47.6189L46.9127 261.738C46.5925 261.219 45.6979 259.644 45.5943 259.107C45.5095 258.701 46.0275 258.513 46.2723 258.815C46.8939 260.229 47.553 261.672 48.6642 262.765H51.6588C50.8678 261.002 50.2275 259.06 49.8319 257.164C49.7848 256.967 49.6813 256.636 49.7189 256.466C49.7943 256.118 50.2839 256.089 50.4252 256.42C50.9337 258.588 51.4893 260.766 52.4875 262.765H54.7758V254.751C54.7758 254.656 55.0584 254.515 55.1807 254.524C55.2843 254.543 55.5009 254.704 55.5009 254.797V262.765H57.6668C58.1188 262.096 58.4202 261.275 58.6838 260.512C59.1358 259.173 59.4654 257.796 59.7951 256.42C59.9833 256.005 60.5578 256.137 60.5013 256.683C60.4071 257.579 59.8892 259.173 59.6067 260.078C59.3179 260.996 58.9726 261.892 58.5708 262.765H61.2735C62.3752 261.672 63.0345 260.229 63.656 258.815C63.9102 258.513 64.4282 258.701 64.3434 259.107C64.2304 259.644 63.3452 261.219 63.025 261.738L62.3188 262.765H63.4582C63.9196 262.765 64.8331 262.312 65.2098 262.03C67.5075 260.285 67.046 256.656 64.3811 255.561C63.3547 255.137 62.3752 255.391 61.3488 254.987C60.2471 254.562 59.9081 253.921 59.1829 253.11C58.9757 252.883 58.3542 252.544 58.7874 252.186C59.1547 251.884 59.6255 252.506 59.861 252.771C60.473 253.44 60.6802 253.93 61.6031 254.289C62.2622 254.552 62.6107 254.468 63.2699 254.524C66.5093 254.826 68.4774 258.305 66.8766 261.21ZM61.7349 263.548H48.2028V264.471H61.7349V263.548Z" fill="#085E9F"/>
<path d="M59.6636 272.326H48.2032V266.886C48.2032 266.848 48.0996 266.679 48.0525 266.641C47.7701 266.358 47.431 266.65 47.4216 266.98C47.544 268.79 47.2521 270.818 47.4216 272.591C47.4499 272.958 47.5629 273.071 47.9302 273.099H59.5694C60.2192 273.033 60.0026 272.326 59.6636 272.326Z" fill="#085E9F"/>
<path fill-rule="evenodd" clip-rule="evenodd" d="M66.2426 292.967C66.252 293.25 66.1014 293.438 65.8471 293.504C65.6399 293.551 65.3857 293.447 65.3009 293.24C65.257 293.114 65.2319 292.985 65.2256 292.853C65.1314 291.42 64.0767 290.383 62.6171 290.298C61.3082 290.223 60.084 291.232 59.8673 292.57C59.836 292.797 59.8234 293.026 59.8297 293.259C59.8297 297.307 59.8297 301.358 59.8297 305.413C59.8297 305.526 59.8234 305.636 59.8109 305.743C59.7826 306.026 59.5754 306.205 59.3118 306.205C59.0481 306.195 58.8315 305.988 58.8315 305.696C58.8252 305.337 58.8221 304.979 58.8221 304.621C58.8221 304.577 58.8189 304.526 58.8126 304.47C55.8809 304.47 52.9333 304.47 49.9702 304.47C49.9702 304.74 49.9702 305.011 49.9702 305.281C49.9702 305.457 49.9607 305.63 49.9419 305.8C49.8948 306.054 49.6877 306.214 49.4428 306.195C49.198 306.186 48.9814 305.988 48.9626 305.734C48.9563 305.689 48.9531 305.642 48.9531 305.592C48.9531 301.418 48.9563 297.241 48.9626 293.061C48.9626 291.392 49.9607 290.006 51.5239 289.478C51.7626 289.409 52.0011 289.346 52.2396 289.289C52.541 289.289 52.8392 289.289 53.1342 289.289C53.1594 289.308 53.1876 289.321 53.219 289.327C54.8104 289.525 56.3172 290.892 56.4114 292.881C56.4302 293.24 56.2324 293.504 55.9311 293.513C55.6391 293.532 55.4226 293.296 55.3943 292.957C55.3881 292.813 55.3755 292.671 55.3567 292.533C55.1401 291.279 54.0948 290.383 52.7576 290.298C51.5805 290.232 50.3845 291.071 50.0926 292.25C49.9702 292.74 49.9985 293.259 49.9702 293.768C49.9639 294.164 49.9639 294.563 49.9702 294.965C52.9145 294.965 55.8526 294.965 58.7844 294.965C58.7781 294.343 58.7813 293.731 58.7938 293.127C58.8221 291.505 59.5472 290.307 61.0257 289.61C61.3458 289.459 61.7131 289.393 62.0615 289.289C62.3629 289.289 62.661 289.289 62.9561 289.289C63.3799 289.421 63.8319 289.506 64.218 289.713C65.5112 290.405 66.1861 291.489 66.2426 292.967ZM58.8126 301.632C55.862 301.632 52.9177 301.632 49.9796 301.632C49.9796 302.217 49.9796 302.798 49.9796 303.376C52.9303 303.376 55.8746 303.376 58.8126 303.376C58.8126 302.791 58.8126 302.21 58.8126 301.632ZM58.8126 300.585C58.8126 300.001 58.8126 299.422 58.8126 298.85C55.8683 298.85 52.9271 298.85 49.989 298.85C49.989 299.435 49.989 300.013 49.989 300.585C52.9333 300.585 55.8746 300.585 58.8126 300.585ZM58.8126 296.022C55.8683 296.022 52.924 296.022 49.9796 296.022C49.9796 296.6 49.9796 297.175 49.9796 297.747C52.9303 297.747 55.8746 297.747 58.8126 297.747C58.8126 297.175 58.8126 296.6 58.8126 296.022Z" fill="#085E9F"/>
<path d="M64.2679 311.739C64.0105 311.846 63.75 311.946 63.4863 312.041C62.4505 312.399 61.4052 312.494 60.3505 312.145C59.8419 311.975 59.3397 311.78 58.8438 311.56C57.6007 311.032 56.3389 310.909 55.0581 311.372C54.4837 311.579 53.9281 311.833 53.3537 312.032C52.3273 312.399 51.282 312.493 50.2272 312.154C49.7188 311.984 49.2196 311.767 48.7206 311.569C48.052 311.296 47.3645 311.089 46.63 311.079C45.7071 311.07 44.8408 311.334 44.0121 311.721C43.739 311.853 43.626 312.116 43.7202 312.361C43.8143 312.606 44.0874 312.748 44.3699 312.663C44.5959 312.597 44.8126 312.494 45.0291 312.418C45.7637 312.154 46.5264 311.984 47.2986 312.202C47.9452 312.39 48.5762 312.616 49.1914 312.88C50.5474 313.436 51.9223 313.549 53.316 313.097C53.9375 312.899 54.5496 312.644 55.1618 312.418C55.8115 312.182 56.4895 312.003 57.177 312.164C57.7546 312.295 58.3196 312.472 58.872 312.692C59.776 313.05 60.6801 313.399 61.6782 313.408C62.0173 313.361 62.3657 313.361 62.6953 313.276C63.367 313.094 64.0293 312.889 64.6823 312.663C64.9647 312.569 65.0777 312.267 64.9742 312.032C64.8518 311.73 64.5881 311.617 64.2679 311.739Z" fill="#085E9F"/>
<path d="M64.3114 307.902C64.0352 308.009 63.7558 308.113 63.4733 308.213C62.4374 308.562 61.3922 308.647 60.3468 308.298C59.8446 308.122 59.3518 307.927 58.8684 307.714C57.4684 307.11 56.0653 307.101 54.6591 307.685C54.2196 307.88 53.777 308.056 53.3312 308.213C52.2954 308.571 51.2501 308.647 50.1954 308.298C49.7308 308.129 49.2663 307.946 48.8017 307.751C47.8318 307.346 46.8336 307.091 45.7883 307.327C45.1856 307.459 44.6112 307.685 44.0368 307.893C43.7542 308.006 43.6507 308.317 43.7637 308.562C43.8672 308.798 44.131 308.911 44.4134 308.816C44.6017 308.748 44.7901 308.675 44.9785 308.6C45.8919 308.251 46.8147 308.147 47.7564 308.478C48.2712 308.66 48.7798 308.857 49.282 309.072C50.4591 309.552 51.6739 309.703 52.9075 309.373C53.6608 309.165 54.386 308.873 55.1111 308.6C56.0339 308.251 56.9662 308.147 57.9078 308.478C58.4164 308.666 58.9186 308.861 59.4146 309.062C60.1491 309.354 60.9025 309.552 61.7971 309.533C62.4468 309.542 63.1626 309.373 63.8782 309.147C64.167 309.047 64.4495 308.933 64.7258 308.807C64.9988 308.675 65.1024 308.374 64.98 308.138C64.8576 307.883 64.5939 307.789 64.3114 307.902Z" fill="#085E9F"/>
</g>
<defs>
<clipPath id="clip0_553_46">
<rect width="292" height="354" fill="white"/>
</clipPath>
</defs>
</svg>
