<svg version="1.2" xmlns="http://www.w3.org/2000/svg" viewBox="0 0 457 297" width="457" height="297">
	<defs>
		<radialGradient id="g1" cx="0" cy="0" r="1" gradientUnits="userSpaceOnUse" gradientTransform="matrix(586.572,0,0,586.572,398.504,364.697)">
			<stop offset=".157" stop-color="#02a59b"/>
			<stop offset=".709" stop-color="#045e9d"/>
			<stop offset=".956" stop-color="#045e9d"/>
		</radialGradient>
	</defs>
	<style>
		.s0 { fill: url(#g1) } 
		.s1 { fill: #ffffff } 
	</style>
	<g id="live logo">
		<path id="&lt;Path&gt;" class="s0" d="m0.62 0.87v231.87c0 35.09 23.17 63.54 51.76 63.54h403.73v-231.87c0-35.09-23.17-63.54-51.76-63.54z"/>
		<g id="&lt;Group&gt;">
			<path id="&lt;Compound Path&gt;" fill-rule="evenodd" class="s1" d="m56.21 249.02v-0.06c0-5.68 4.48-10.33 10.65-10.33 6.17 0 10.59 4.59 10.59 10.28v0.05c0 5.68-4.48 10.34-10.65 10.34-6.16 0-10.59-4.6-10.59-10.28zm16.65 0v-0.06c0-3.42-2.52-6.28-6.06-6.28-3.54 0-5.99 2.8-5.99 6.23v0.05c0 3.43 2.51 6.28 6.05 6.28 3.54 0 6-2.79 6-6.22z"/>
			<path id="&lt;Compound Path&gt;" class="s1" d="m90.88 243.02h-6.09v-4.05h16.56v4.05h-6.08v15.93h-4.39z"/>
			<path id="&lt;Compound Path&gt;" fill-rule="evenodd" class="s1" d="m114.72 238.83h4.05l8.57 20.12h-4.6l-1.83-4.48h-8.45l-1.82 4.48h-4.49zm4.63 11.77l-2.66-6.48-2.65 6.48zm-0.92-17.96l3.74 1.63-3.88 2.85h-3.31z"/>
			<path id="&lt;Compound Path&gt;" class="s1" d="m131.57 238.97h4.85l5.22 14.08 5.23-14.08h4.74l-8.08 20.13h-3.88z"/>
			<path id="&lt;Compound Path&gt;" class="s1" d="m160.61 238.97h4.39v19.98h-4.39z"/>
			<path id="&lt;Compound Path&gt;" fill-rule="evenodd" class="s1" d="m174.83 249.02v-0.06c0-5.68 4.48-10.33 10.65-10.33 6.16 0 10.59 4.59 10.59 10.28v0.05c0 5.68-4.48 10.34-10.65 10.34-6.17 0-10.59-4.6-10.59-10.28zm16.64 0v-0.06c0-3.42-2.51-6.28-6.05-6.28-3.54 0-6 2.8-6 6.23v0.05c0 3.43 2.52 6.28 6.06 6.28 3.54 0 5.99-2.79 5.99-6.22z"/>
			<path id="&lt;Compound Path&gt;" class="s1" d="m224.62 243.02h-6.08v-4.05h16.56v4.05h-6.08v15.93h-4.4z"/>
			<path id="&lt;Compound Path&gt;" fill-rule="evenodd" class="s1" d="m248.47 238.83h4.05l8.57 20.12h-4.6l-1.83-4.48h-8.45l-1.83 4.48h-4.48zm4.63 11.77l-2.66-6.48-2.65 6.48z"/>
			<path id="&lt;Compound Path&gt;" fill-rule="evenodd" class="s1" d="m269.88 238.97h9.14q3.81 0.01 5.82 2.03 1.72 1.7 1.72 4.56v0.06c0 3.23-1.75 5.26-4.29 6.2l4.89 7.13h-5.14l-4.29-6.39h-3.45v6.39h-4.4zm8.85 9.71c2.17 0 3.37-1.11 3.37-2.82v-0.06c0-1.91-1.28-2.86-3.45-2.86h-4.37v5.74z"/>
			<path id="&lt;Compound Path&gt;" fill-rule="evenodd" class="s1" d="m314.08 259.55l-2.2-1.97c-1.71 1.12-3.68 1.72-5.93 1.72-6.17 0-10.6-4.6-10.6-10.28v-0.06c0-5.68 4.49-10.33 10.65-10.33 6.17 0 10.59 4.59 10.59 10.28v0.05c0 2.14-0.65 4.06-1.77 5.74l2.06 1.74zm-5.48-4.85l-3.23-2.77 2.8-3.14 3.28 2.97q0.55-1.24 0.55-2.74v-0.06c0-3.43-2.52-6.28-6.06-6.28-3.54 0-5.99 2.8-5.99 6.22v0.06c0 3.43 2.51 6.28 6.05 6.28 1 0 1.83-0.2 2.6-0.54z"/>
			<path id="&lt;Compound Path&gt;" class="s1" d="m325.91 250.39v-11.42h4.39v11.31c0 3.28 1.6 4.94 4.31 4.94 2.72 0 4.31-1.6 4.31-4.8v-11.45h4.4v11.28c0 6.05-3.4 9.02-8.76 9.02-5.37 0-8.65-2.97-8.65-8.88z"/>
			<path id="&lt;Compound Path&gt;" class="s1" d="m353.72 238.97h4.39v19.98h-4.39z"/>
			<path id="&lt;Compound Path&gt;" class="s1" d="m368.82 238.97h4.06l9.36 12.31v-12.31h4.34v19.98h-3.74l-9.68-12.7v12.7h-4.34z"/>
			<path id="&lt;Compound Path&gt;" fill-rule="evenodd" class="s1" d="m396.21 249.02v-0.06c0-5.68 4.48-10.33 10.65-10.33 6.16 0 10.59 4.59 10.59 10.28v0.05c0 5.68-4.48 10.34-10.65 10.34-6.17 0-10.59-4.6-10.59-10.28zm16.64 0v-0.06c0-3.42-2.51-6.28-6.05-6.28-3.54 0-6 2.8-6 6.23v0.05c0 3.43 2.52 6.28 6.06 6.28 3.54 0 5.99-2.79 5.99-6.22z"/>
		</g>
		<path id="&lt;Compound Path&gt;" fill-rule="evenodd" class="s1" d="m208.34 202.91v0.02q-0.03 0-0.8 0.01-6.68 0.27-13.35-0.18c-4.83-0.36-9.56-1.64-13.91-3.77-4.68-2.33-8.68-5.8-11.65-10.09-3.13-4.54-4.82-9.92-4.84-15.44v-49.74c0-3.72-1.73-7.22-4.68-9.49-2.95-2.26-6.79-3.03-10.38-2.06v-0.03l15.05-4.03 28.15-7.54v61.45c0 23.89 0.2 38.84 13.43 40.71l0.38 0.04q0.92 0.11 1.94 0.12 0.32 0.02 0.66 0.02zm94.72-83.9l-39.14 87.97-34.93-78.48c-5.02-11.27-13.83-25.54-26.62-20.36q-0.16 0.07-0.36 0.13v-0.02l4.19-1.94h0.02q4.29-2.09 8.79-3.67c4.56-1.62 9.4-2.37 14.25-2.2 5.21 0.24 10.28 1.78 14.75 4.48 4.7 2.88 8.43 7.11 10.7 12.13l22.84 51.38 25.94-58.51c-0.36-1.27-0.86-2.51-1.6-3.65-2.52-3.87-6.83-6.21-11.45-6.2v-0.02h42.04v0.02c-12.68 0-24.17 7.42-29.42 18.94zm-94.72 83.92q0.01-0.01 0.01-0.01l-0.01 0.01zm140.03-52.14v-3.3h41.11c-0.2-16.53-2.54-43.61-20.92-45.8q-0.83-0.07-1.67-0.1c-0.21-0.01-1.01 0-1.01 0q-2.31 0.08-4.58 0.6c-17.84 4.67-20.06 33.43-20.06 48.6q0 0.17 0 0.34 0.05 1.15 0.08 2.34 0.02 0.82 0.02 1.64c0.73 17.34 6.11 45.65 26.16 47.81q1.21 0.1 2.47 0.1v0.03c-0.37 0-0.72-0.03-1.09-0.03q0.54 0.04 1.09 0.05c0 0-0.85 0.01-2.25-0.08-6.4 0-12.76-0.87-18.93-2.56-6.62-1.93-12.76-5.24-18.01-9.72-10.33-8.73-16.66-21.3-17.52-34.8l-0.11-0.03 0.1-0.02q-0.06-0.85-0.09-1.71-0.09-4.11 0.53-8.17l0.04-0.25c0.68-4.27 1.93-8.43 3.72-12.36 2.87-6.13 6.83-11.68 11.68-16.39 4.82-4.74 10.36-8.67 16.41-11.65 5.07-2.53 10.55-4.13 16.19-4.73q2.08-0.28 4.18-0.31 0.15 0 0.31 0c0 0 0.58-0.01 1.55 0.02 6.38 0.05 12.69 1.27 18.62 3.61 6.11 2.56 11.63 6.36 16.21 11.15 8.17 8.27 13.35 19.02 14.73 30.55 0.01 0.06 0.03 0.29 0.03 0.29q0.23 2.17 0.25 4.43v0.45zm-198.23 11.32h0.02v40.94h-47.4l-5.2-0.06c-4.57-0.05-9.11-0.79-13.45-2.24-5.33-1.92-10.19-4.95-14.26-8.89-8.39-7.65-13.3-18.39-13.59-29.74v-105.6c0-9.46-7.67-17.13-17.13-17.13l-0.01-0.02h62.41v0.02c-9.46 0-17.13 7.67-17.13 17.13v105.6c0 3.26 0.01 11.13 1.28 19.1 1.7 10.67 10.91 18.53 21.72 18.53h5.96c20.39-0.49 36.78-17.13 36.78-37.64zm13.65-108.66c0-7.78 6.3-14.08 14.07-14.08 7.78 0 14.08 6.3 14.08 14.08 0 7.77-6.3 14.07-14.08 14.07-7.77 0-14.07-6.3-14.07-14.07z"/>
	</g>
</svg>